<svg width="32" height="32" viewBox="0 0 32 32" fill="none" xmlns="http://www.w3.org/2000/svg">
<path opacity="0.2" d="M2 16C2 11.5817 5.58172 8 10 8H22C26.4183 8 30 11.5817 30 16C30 20.4183 26.4183 24 22 24H10C5.58172 24 2 20.4183 2 16Z" fill="black"/>
<path d="M2 16C2 11.5817 5.58172 8 10 8H22C26.4183 8 30 11.5817 30 16V16C30 20.4183 26.4183 24 22 24H10C5.58172 24 2 20.4183 2 16V16Z" fill="black"/>
<path d="M28 16C28 19.3137 25.3137 22 22 22C18.6863 22 16 19.3137 16 16C16 12.6863 18.6863 10 22 10C25.3137 10 28 12.6863 28 16Z" fill="white"/>
</svg>
