<svg xmlns="http://www.w3.org/2000/svg" width="256" height="256" fill="none" viewBox="0 0 256 256"><path fill="currentColor" d="m85.034 116.246 76.296-73.795c5.414-5.236 14.67-1.528 14.67 5.877v159.344c0 7.405-9.256 11.113-14.67 5.877l-76.296-73.795c-6.712-6.491-6.712-17.017 0-23.508" opacity=".2"/><path fill="currentColor" fill-rule="evenodd" d="M154.968 36.885C165.682 26.45 184 33.841 184 48.6v158.8c0 14.76-18.318 22.151-29.032 11.715l-75.496-73.544c-9.962-9.704-9.962-25.438 0-35.142zM166.994 207.4V48.6l-75.497 73.543a8.13 8.13 0 0 0 0 11.714z" clip-rule="evenodd"/></svg>