<svg xmlns="http://www.w3.org/2000/svg" width="256" height="256" fill="none" viewBox="0 0 256 256"><path fill="currentColor" d="m139.754 85.034 73.795 76.296c5.236 5.414 1.528 14.67-5.877 14.67H48.328c-7.405 0-11.113-9.256-5.877-14.67l73.795-76.296c6.491-6.712 17.017-6.712 23.508 0" opacity=".2"/><path fill="currentColor" fill-rule="evenodd" d="M219.115 154.968C229.551 165.682 222.159 184 207.4 184H48.6c-14.76 0-22.15-18.318-11.715-29.032l73.544-75.496c9.704-9.962 25.438-9.962 35.142 0zM48.6 166.994h158.8l-73.543-75.497a8.13 8.13 0 0 0-11.714 0z" clip-rule="evenodd"/></svg>