<svg xmlns="http://www.w3.org/2000/svg" width="256" height="256" fill="none" viewBox="0 0 256 256"><path fill="currentColor" d="M116.247 170.966 42.452 94.67C37.216 89.256 40.924 80 48.329 80h159.344c7.404 0 11.113 9.256 5.877 14.67l-73.795 76.296c-6.492 6.712-17.017 6.712-23.508 0" opacity=".2"/><path fill="currentColor" fill-rule="evenodd" d="M36.886 101.032C26.45 90.318 33.84 72 48.6 72H207.4c14.759 0 22.15 18.318 11.714 29.032l-73.543 75.496c-9.705 9.963-25.439 9.963-35.143 0zM207.4 89.006H48.6l73.543 75.497a8.13 8.13 0 0 0 11.714 0zl5.857 6.013z" clip-rule="evenodd"/></svg>