<svg xmlns="http://www.w3.org/2000/svg" width="256" height="256" fill="none" viewBox="0 0 256 256"><path fill="currentColor" d="M170.966 139.754 94.67 213.549c-5.414 5.236-14.67 1.528-14.67-5.877V48.328c0-7.405 9.256-11.113 14.67-5.877l76.296 73.795c6.712 6.491 6.712 17.017 0 23.508" opacity=".2"/><path fill="currentColor" fill-rule="evenodd" d="M101.032 219.115C90.318 229.551 72 222.159 72 207.4V48.6c0-14.76 18.318-22.15 29.032-11.715l75.496 73.544c9.963 9.704 9.963 25.438 0 35.142zM89.006 48.6v158.8l75.497-73.543a8.13 8.13 0 0 0 0-11.714z" clip-rule="evenodd"/></svg>