<svg xmlns="http://www.w3.org/2000/svg" width="256" height="256" fill="none" viewBox="0 0 256 256"><path fill="currentColor" d="M224 128a95.998 95.998 0 0 1-114.729 94.155A95.997 95.997 0 0 1 39.308 91.262 96 96 0 0 1 224 128" opacity=".2"/><path fill="currentColor" d="M165.66 101.66 139.31 128l26.35 26.34a8.004 8.004 0 0 1-11.32 11.32L128 139.31l-26.34 26.35a8.005 8.005 0 0 1-11.32-11.32L116.69 128l-26.35-26.34a8.004 8.004 0 0 1 11.32-11.32L128 116.69l26.34-26.35a8 8 0 0 1 11.32 0 8.005 8.005 0 0 1 0 11.32M232 128a103.995 103.995 0 0 1-64.201 96.083 103.99 103.99 0 0 1-113.338-22.544A104.002 104.002 0 0 1 70.22 41.527 104 104 0 0 1 128 24a104.11 104.11 0 0 1 104 104m-16 0a88 88 0 0 0-54.324-81.301A88 88 0 1 0 128 216a88.1 88.1 0 0 0 62.196-25.804A88.1 88.1 0 0 0 216 128"/></svg>