<svg xmlns="http://www.w3.org/2000/svg" width="256" height="256" fill="none" viewBox="0 0 256 256"><path fill="currentColor" fill-rule="evenodd" d="M112 76v26.4a9.6 9.6 0 0 1-9.6 9.6H76c-19.882 0-36-16.118-36-36s16.118-36 36-36 36 16.118 36 36m-80 0c0-24.3 19.7-44 44-44s44 19.7 44 44v26.4c0 9.72-7.88 17.6-17.6 17.6H76c-24.3 0-44-19.699-44-44m44 68h26.4a9.6 9.6 0 0 1 9.6 9.6V180c0 19.882-16.118 36-36 36s-36-16.118-36-36 16.118-36 36-36m-44 36c0-24.301 19.7-44 44-44h26.4c9.72 0 17.6 7.88 17.6 17.6V180c0 24.301-19.699 44-44 44s-44-19.699-44-44m121.6-68H180c19.882 0 36-16.118 36-36s-16.118-36-36-36-36 16.118-36 36v26.4a9.6 9.6 0 0 0 9.6 9.6M180 32c-24.301 0-44 19.7-44 44v26.4c0 9.72 7.88 17.6 17.6 17.6H180c24.301 0 44-19.699 44-44s-19.699-44-44-44m-26.4 112H180c19.882 0 36 16.118 36 36s-16.118 36-36 36-36-16.118-36-36v-26.4a9.6 9.6 0 0 1 9.6-9.6m-17.6 9.6c0-9.72 7.88-17.6 17.6-17.6H180c24.301 0 44 19.699 44 44s-19.699 44-44 44-44-19.699-44-44z" clip-rule="evenodd"/></svg>