<svg xmlns="http://www.w3.org/2000/svg" width="256" height="256" fill="none" viewBox="0 0 256 256"><path fill="currentColor" fill-rule="evenodd" d="M156 40a4 4 0 0 1 4-4h32c15.464 0 28 12.536 28 28v32a4 4 0 0 1-8 0V64c0-11.046-8.954-20-20-20h-32a4 4 0 0 1-4-4m-19.515 53.17 26.912 26.913c4.686 4.686 4.686 12.284 0 16.97l-26.912 26.912c-4.686 4.686-12.284 4.686-16.97 0l-26.912-26.912c-4.686-4.686-4.686-12.284 0-16.97l26.912-26.912c4.686-4.686 12.284-4.687 16.97 0m-5.657 5.658a4 4 0 0 0-5.656 0L98.26 125.739a4 4 0 0 0 0 5.657l26.912 26.912a4 4 0 0 0 5.656 0l26.912-26.912a4 4 0 0 0 0-5.657zM96 220a4 4 0 0 0 0-8H64c-11.046 0-20-8.954-20-20v-32a4 4 0 0 0-8 0v32c0 15.464 12.536 28 28 28zM40 100a4 4 0 0 1-4-4V64c0-15.464 12.536-28 28-28h32a4 4 0 0 1 0 8H64c-11.046 0-20 8.954-20 20v32a4 4 0 0 1-4 4m180 60a4 4 0 0 0-8 0v32c0 11.046-8.954 20-20 20h-32a4 4 0 0 0 0 8h32c15.464 0 28-12.536 28-28z" clip-rule="evenodd"/></svg>