<svg xmlns="http://www.w3.org/2000/svg" width="256" height="256" fill="none" viewBox="0 0 256 256"><path fill="currentColor" d="M162.83 98.83 133.66 128l29.17 29.17a4.002 4.002 0 0 1-5.66 5.66L128 133.66l-29.17 29.17a4 4 0 0 1-5.66 0 4.004 4.004 0 0 1 0-5.66L122.34 128 93.17 98.83a4.002 4.002 0 1 1 5.66-5.66L128 122.34l29.17-29.17a4 4 0 0 1 2.83-1.172 4.005 4.005 0 0 1 3.698 2.47 4 4 0 0 1-.868 4.362M228 128a100.002 100.002 0 0 1-170.71 70.711 100.005 100.005 0 0 1-21.678-108.98A100 100 0 0 1 128 28a100.11 100.11 0 0 1 100 100m-8 0a92 92 0 1 0-92 92 92.1 92.1 0 0 0 92-92"/></svg>