<svg width="256" height="256" viewBox="0 0 256 256" fill="none" xmlns="http://www.w3.org/2000/svg">
<path d="M199.497 37.2237C196.92 30.2588 187.069 30.2588 184.492 37.2237L178.146 54.3727C177.336 56.5624 175.609 58.2889 173.42 59.0992L156.271 65.4449C149.306 68.0221 149.306 77.8732 156.271 80.4505L173.42 86.7962C175.609 87.6064 177.336 89.3329 178.146 91.5227L184.492 108.672C187.069 115.637 196.92 115.637 199.497 108.672L205.843 91.5227C206.653 89.3329 208.38 87.6064 210.57 86.7962L227.719 80.4505C234.683 77.8732 234.683 68.0221 227.719 65.4449L210.57 59.0992C208.38 58.2889 206.653 56.5624 205.843 54.3727L199.497 37.2237Z" fill="black"/>
<path fill-rule="evenodd" clip-rule="evenodd" d="M39.763 218.888L56.2481 152.947H119.756L136.241 218.888C137.312 223.174 141.656 225.78 145.942 224.708C150.229 223.637 152.835 219.293 151.763 215.007L111.285 53.0962C105.226 28.8573 70.7782 28.8572 64.7185 53.0961L24.2408 215.007C23.1692 219.293 25.7752 223.637 30.0616 224.708C34.348 225.78 38.6914 223.174 39.763 218.888ZM95.763 56.9767C93.7431 48.8971 82.2607 48.8971 80.2408 56.9767L60.2481 136.947H115.756L95.763 56.9767Z" fill="black"/>
<path d="M200 144.947C200 140.529 196.418 136.947 192 136.947C187.582 136.947 184 140.529 184 144.947V216.947C184 221.366 187.582 224.947 192 224.947C196.418 224.947 200 221.366 200 216.947V144.947Z" fill="black"/>
</svg>
