<svg width="256" height="256" viewBox="0 0 256 256" fill="none" xmlns="http://www.w3.org/2000/svg">
<path opacity="0.2" d="M170.966 139.754L94.6696 213.549C89.2561 218.785 80 215.077 80 207.672L80 48.3281C80 40.9234 89.2561 37.2151 94.6696 42.451L170.966 116.246C177.678 122.737 177.678 133.263 170.966 139.754Z" fill="black"/>
<path fill-rule="evenodd" clip-rule="evenodd" d="M101.032 219.115C90.3182 229.551 72 222.159 72 207.4L72 48.5995C72 33.8405 90.3182 26.4492 101.032 36.8854L176.528 110.429C186.491 120.133 186.491 135.867 176.528 145.571L101.032 219.115ZM89.0063 48.5995L89.0063 207.4L164.503 133.857C167.824 130.622 167.824 125.378 164.503 122.143L89.0063 48.5995Z" fill="black"/>
</svg>
