<svg width="256" height="256" viewBox="0 0 256 256" fill="none" xmlns="http://www.w3.org/2000/svg">
<path d="M186.343 101.445C189.467 104.852 194.533 104.852 197.657 101.445C200.781 98.0388 200.781 92.516 197.657 89.1096L144.971 31.6644C135.598 21.4452 120.402 21.4452 111.029 31.6644L58.3431 89.1096C55.219 92.516 55.219 98.0388 58.3431 101.445C61.4673 104.852 66.5327 104.852 69.6568 101.445L122.343 44C125.467 40.5936 130.533 40.5936 133.657 44L186.343 101.445Z" fill="black"/>
<path d="M69.6569 154.555C66.5327 151.148 61.4673 151.148 58.3432 154.555C55.219 157.961 55.219 163.484 58.3432 166.89L111.029 224.336C120.402 234.555 135.598 234.555 144.971 224.336L197.657 166.89C200.781 163.484 200.781 157.961 197.657 154.555C194.533 151.148 189.467 151.148 186.343 154.555L133.657 212C130.533 215.406 125.467 215.406 122.343 212L69.6569 154.555Z" fill="black"/>
</svg>
