<svg width="256" height="256" viewBox="0 0 256 256" fill="none" xmlns="http://www.w3.org/2000/svg">
<path fill-rule="evenodd" clip-rule="evenodd" d="M229.54 58.2289C232.728 61.2887 232.831 66.353 229.771 69.5403L176.011 125.54C174.503 127.112 172.418 128 170.24 128C168.062 128 165.977 127.112 164.469 125.54L131.84 91.5518L93.1736 131.829L120.722 158.276L32 184L54.0831 94.3023L81.6315 120.749L126.069 74.4597C127.577 72.8883 129.662 72 131.84 72C134.018 72 136.103 72.8883 137.611 74.4598L170.24 108.448L218.229 58.4598C221.289 55.2725 226.353 55.1691 229.54 58.2289Z" fill="black"/>
</svg>
