<svg width="256" height="256" viewBox="0 0 256 256" fill="none" xmlns="http://www.w3.org/2000/svg">
<path fill-rule="evenodd" clip-rule="evenodd" d="M135.278 89.7243L224 64L201.917 153.698L174.369 127.251L129.931 173.54C128.423 175.112 126.338 176 124.16 176C121.982 176 119.897 175.112 118.389 173.54L85.76 139.552L37.7711 189.54C34.7113 192.728 29.647 192.831 26.4598 189.771C23.2725 186.711 23.1691 181.647 26.2289 178.46L79.9889 122.46C81.4975 120.888 83.5817 120 85.76 120C87.9384 120 90.0225 120.888 91.5311 122.46L124.16 156.448L162.826 116.171L135.278 89.7243Z" fill="black"/>
</svg>
