<svg width="256" height="256" viewBox="0 0 256 256" fill="none" xmlns="http://www.w3.org/2000/svg">
<path d="M136 67.3137L154.343 85.6569C155.843 87.1572 157.878 88 160 88C162.122 88 164.157 87.1572 165.657 85.6569C167.157 84.1566 168 82.1217 168 80C168 77.8783 167.157 75.8434 165.657 74.3431L133.657 42.3431C132.157 40.8429 130.122 40 128 40C125.878 40 123.843 40.8428 122.343 42.3431L90.3461 74.3401C88.8459 75.8404 88 77.8783 88 80C88 82.1217 88.8429 84.1566 90.3431 85.6569C91.8434 87.1571 93.8783 88 96 88C98.1217 88 100.157 87.1571 101.657 85.6569L120 67.3137L120 208C120 212.418 123.582 216 128 216C132.418 216 136 212.418 136 208L136 67.3137Z" fill="black"/>
</svg>
