<svg width="256" height="256" viewBox="0 0 256 256" fill="none" xmlns="http://www.w3.org/2000/svg">
<path opacity="0.2" d="M116.247 170.966L42.4519 94.6696C37.216 89.2561 40.9243 80 48.329 80H207.673C215.077 80 218.786 89.2561 213.55 94.6696L139.755 170.966C133.263 177.678 122.738 177.678 116.247 170.966Z" fill="black"/>
<path fill-rule="evenodd" clip-rule="evenodd" d="M36.8857 101.032C26.4496 90.3182 33.8409 72 48.5999 72H207.401C222.16 72 229.551 90.3182 219.115 101.032L145.572 176.528C135.867 186.491 120.133 186.491 110.429 176.528L36.8857 101.032ZM207.401 89.0063H48.5999L122.143 164.503C125.378 167.824 130.623 167.824 133.857 164.503L207.401 89.0063L213.258 95.019L207.401 89.0063Z" fill="black"/>
</svg>
