<svg width="256" height="256" viewBox="0 0 256 256" fill="none" xmlns="http://www.w3.org/2000/svg">
<path d="M53.6569 170.343C52.1566 168.843 50.1217 168 48 168C45.8783 168 43.8434 168.843 42.3431 170.343C40.8429 171.843 40 173.878 40 176C40 178.122 40.8429 180.157 42.3431 181.657L74.3431 213.657C75.8434 215.157 77.8783 216 80 216C82.1217 216 84.1566 215.157 85.6569 213.657L117.654 181.66C119.154 180.16 120 178.122 120 176C120 173.878 119.157 171.843 117.657 170.343C116.157 168.843 114.122 168 112 168C109.878 168 107.843 168.843 106.343 170.343L80 196.686L53.6569 170.343Z" fill="black"/>
<path d="M72 48V208C72 212.418 75.5817 216 80 216C84.4183 216 88 212.418 88 208V48C88 43.5817 84.4183 40 80 40C75.5817 40 72 43.5817 72 48Z" fill="black"/>
<path d="M202.339 85.6527C203.839 87.153 205.878 88 208 88C210.122 88 212.157 87.1571 213.657 85.6569C215.157 84.1566 216 82.1217 216 80C216 77.8783 215.157 75.8434 213.657 74.3431L181.657 42.3431C180.157 40.8429 178.122 40 176 40C173.878 40 171.843 40.8429 170.343 42.3431L138.343 74.3431C136.843 75.8434 136 77.8783 136 80C136 80.1282 136.003 80.2563 136.009 80.3843C136.105 82.3708 136.937 84.2505 138.343 85.6569C139.843 87.1571 141.878 88 144 88C146.122 88 148.157 87.1571 149.657 85.6569L176 59.3137L202.339 85.6527Z" fill="black"/>
<path d="M184 208V48C184 43.5817 180.418 40 176 40C171.582 40 168 43.5817 168 48V208C168 212.418 171.582 216 176 216C180.418 216 184 212.418 184 208Z" fill="black"/>
</svg>
