<svg width="256" height="256" viewBox="0 0 256 256" fill="none" xmlns="http://www.w3.org/2000/svg">
<path opacity="0.2" d="M139.754 85.0338L213.549 161.33C218.785 166.744 215.077 176 207.672 176L48.3281 176C40.9234 176 37.2151 166.744 42.451 161.33L116.246 85.0338C122.737 78.3221 133.263 78.3221 139.754 85.0338Z" fill="black"/>
<path fill-rule="evenodd" clip-rule="evenodd" d="M219.115 154.968C229.551 165.682 222.159 184 207.4 184L48.5995 184C33.8405 184 26.4492 165.682 36.8854 154.968L110.429 79.4715C120.133 69.5095 135.867 69.5095 145.571 79.4716L219.115 154.968ZM48.5995 166.994L207.4 166.994L133.857 91.4968C130.622 88.1762 125.378 88.1761 122.143 91.4968L48.5995 166.994Z" fill="black"/>
</svg>
