<svg width="256" height="256" viewBox="0 0 256 256" fill="none" xmlns="http://www.w3.org/2000/svg">
<path d="M101.657 170.343L120 188.686V48C120 43.5817 123.582 40 128 40C132.418 40 136 43.5817 136 48V188.686L154.343 170.343C155.843 168.843 157.878 168 160 168C162.122 168 164.157 168.843 165.657 170.343C167.157 171.843 168 173.878 168 176C168 178.122 167.154 180.16 165.654 181.66L133.657 213.657C132.157 215.157 130.122 216 128 216C125.878 216 123.843 215.157 122.343 213.657L90.3431 181.657C88.8429 180.157 88 178.122 88 176C88 173.878 88.8429 171.843 90.3431 170.343C91.8434 168.843 93.8783 168 96 168C98.1217 168 100.157 168.843 101.657 170.343Z" fill="black"/>
</svg>
