<svg width="256" height="256" viewBox="0 0 256 256" fill="none" xmlns="http://www.w3.org/2000/svg">
<path d="M40 136H216C220.418 136 224 132.418 224 128C224 123.582 220.418 120 216 120H40C35.5817 120 32 123.582 32 128C32 132.418 35.5817 136 40 136Z" fill="black"/>
<path d="M204.686 128L138.343 194.343C136.843 195.843 136 197.878 136 200C136 202.122 136.843 204.157 138.343 205.657C139.843 207.157 141.878 208 144 208C146.122 208 148.157 207.157 149.657 205.657L221.657 133.657C224.781 130.533 224.781 125.467 221.657 122.343L149.657 50.3431C148.157 48.8429 146.122 48 144 48C141.878 48 139.843 48.8429 138.343 50.3431C136.843 51.8434 136 53.8783 136 56C136 58.1217 136.843 60.1566 138.343 61.6569L204.686 128Z" fill="black"/>
</svg>
