<svg width="256" height="256" viewBox="0 0 256 256" fill="none" xmlns="http://www.w3.org/2000/svg">
<path opacity="0.2" d="M85.0338 116.246L161.33 42.451C166.744 37.2151 176 40.9234 176 48.3281L176 207.672C176 215.077 166.744 218.785 161.33 213.549L85.0338 139.754C78.3221 133.263 78.3221 122.737 85.0338 116.246Z" fill="black"/>
<path fill-rule="evenodd" clip-rule="evenodd" d="M154.968 36.8854C165.682 26.4492 184 33.8405 184 48.5995L184 207.4C184 222.16 165.682 229.551 154.968 219.115L79.4715 145.571C69.5095 135.867 69.5095 120.133 79.4716 110.429L154.968 36.8854ZM166.994 207.4L166.994 48.5995L91.4968 122.143C88.1762 125.378 88.1761 130.622 91.4968 133.857L166.994 207.4Z" fill="black"/>
</svg>
