<svg width="256" height="256" viewBox="0 0 256 256" fill="none" xmlns="http://www.w3.org/2000/svg">
<path d="M36.4228 175.229C37.7559 171.089 42.1847 168.81 46.3197 170.143C50.4536 171.478 52.7301 175.92 51.3987 180.061L39.7576 216.218L50.1616 212.594L50.1693 212.586L84.7082 200.559L87.7817 202.275C90.9568 204.039 94.2607 205.61 97.6632 206.969C101.695 208.583 103.659 213.163 102.051 217.203C100.441 221.243 95.8664 223.213 91.8311 221.604C88.9241 220.443 86.0852 219.139 83.3174 217.726L44.9289 231.107C44.5495 231.239 44.1654 231.351 43.784 231.453C43.7257 231.469 43.6655 231.476 43.6073 231.491C43.2969 231.571 42.9883 231.647 42.6775 231.707C42.5134 231.739 42.3493 231.765 42.1857 231.791C42.0009 231.821 41.8172 231.853 41.6325 231.876C30.9847 233.229 21.741 223.29 24.4898 212.417C24.5759 212.073 24.6715 211.728 24.7818 211.385L28.2626 200.575L28.2703 200.559L36.4228 175.229Z" fill="black"/>
<path d="M146.609 211.455C150.871 210.612 155.016 213.382 155.861 217.649C156.704 221.917 153.929 226.067 149.667 226.913C143.208 228.193 136.533 228.86 129.713 228.86C125.351 228.86 121.044 228.584 116.819 228.052C112.509 227.507 109.453 223.566 109.996 219.249C110.54 214.934 114.476 211.874 118.786 212.417C122.361 212.867 126.009 213.101 129.713 213.101C135.501 213.101 141.152 212.536 146.609 211.455Z" fill="black"/>
<path d="M201.687 174.582C204.105 170.968 208.995 169.993 212.606 172.413C216.215 174.834 217.181 179.731 214.765 183.347C207.3 194.513 197.7 204.125 186.55 211.601C182.939 214.022 178.049 213.054 175.631 209.439C173.215 205.823 174.188 200.925 177.798 198.505C187.237 192.176 195.367 184.035 201.687 174.582Z" fill="black"/>
<path d="M220.805 100.245C225.067 99.4022 229.213 102.179 230.056 106.447C231.334 112.916 232 119.599 232 126.43C232 133.26 231.334 139.944 230.056 146.413C229.213 150.681 225.067 153.458 220.805 152.614C216.543 151.769 213.776 147.618 214.619 143.35C215.699 137.884 216.263 132.227 216.263 126.43C216.263 120.633 215.699 114.975 214.619 109.51C213.776 105.242 216.543 101.091 220.805 100.245Z" fill="black"/>
<path d="M29.3691 106.447C30.2128 102.179 34.3578 99.4009 38.6204 100.245C42.8806 101.092 45.6487 105.242 44.8059 109.51C43.7263 114.976 43.1616 120.633 43.1616 126.43C43.1616 129.988 43.3771 133.493 43.7917 136.933C44.3122 141.252 41.2351 145.182 36.9223 145.705C32.6084 146.226 28.6917 143.146 28.1704 138.826C27.6801 134.759 27.4251 130.622 27.4251 126.43C27.4251 119.599 28.0911 112.916 29.3691 106.447Z" fill="black"/>
<path d="M72.8751 41.2589C76.4859 38.8393 81.3767 39.8055 83.7938 43.4211C86.2088 47.0363 85.2359 51.9344 81.627 54.355C72.1875 60.6839 64.0581 68.8248 57.7379 78.2774C55.321 81.8924 50.4298 82.8656 46.8191 80.4473C43.2081 78.0264 42.2424 73.1293 44.6599 69.5133C52.1253 58.3472 61.7244 48.7345 72.8751 41.2589Z" fill="black"/>
<path d="M175.631 43.4211C178.049 39.8059 182.939 38.8382 186.55 41.2589C197.7 48.7346 207.3 58.3473 214.765 69.5133C217.181 73.1287 216.215 78.0263 212.606 80.4473C208.995 82.8666 204.105 81.8921 201.687 78.2774C195.367 68.8249 187.237 60.684 177.798 54.355C174.188 51.9345 173.215 47.0369 175.631 43.4211Z" fill="black"/>
<path d="M129.713 24C136.533 24.0001 143.208 24.6671 149.667 25.9467C153.929 26.7923 156.704 30.9431 155.861 35.211C155.016 39.4778 150.871 42.2481 146.609 41.4051C141.152 40.3241 135.501 39.7586 129.713 39.7584C123.924 39.7584 118.273 40.3243 112.816 41.4051C108.554 42.2494 104.409 39.4782 103.564 35.211C102.721 30.9423 105.495 26.7914 109.758 25.9467C116.217 24.6672 122.892 24 129.713 24Z" fill="black"/>
</svg>
