<svg width="256" height="256" viewBox="0 0 256 256" fill="none" xmlns="http://www.w3.org/2000/svg">
<g filter="url(#filter0_iiii_7214_3728)">
<path d="M16 118.4C16 82.5566 16 64.635 22.9756 50.9446C29.1115 38.9022 38.9022 29.1115 50.9446 22.9756C64.635 16 82.5566 16 118.4 16H137.6C173.443 16 191.365 16 205.055 22.9756C217.098 29.1115 226.889 38.9022 233.024 50.9446C240 64.635 240 82.5566 240 118.4V137.6C240 173.443 240 191.365 233.024 205.055C226.889 217.098 217.098 226.889 205.055 233.024C191.365 240 173.443 240 137.6 240H118.4C82.5566 240 64.635 240 50.9446 233.024C38.9022 226.889 29.1115 217.098 22.9756 205.055C16 191.365 16 173.443 16 137.6V118.4Z" fill="black"/>
</g>
<path fill-rule="evenodd" clip-rule="evenodd" d="M76 128C76 121.373 81.3726 116 88 116H168C174.627 116 180 121.373 180 128C180 134.627 174.627 140 168 140H88C81.3726 140 76 134.627 76 128Z" fill="white"/>
<defs>
<filter id="filter0_iiii_7214_3728" x="16" y="15.5" width="225" height="226" filterUnits="userSpaceOnUse" color-interpolation-filters="sRGB">
<feFlood flood-opacity="0" result="BackgroundImageFix"/>
<feBlend mode="normal" in="SourceGraphic" in2="BackgroundImageFix" result="shape"/>
<feColorMatrix in="SourceAlpha" type="matrix" values="0 0 0 0 0 0 0 0 0 0 0 0 0 0 0 0 0 0 127 0" result="hardAlpha"/>
<feOffset dx="1" dy="1.5"/>
<feGaussianBlur stdDeviation="2"/>
<feComposite in2="hardAlpha" operator="arithmetic" k2="-1" k3="1"/>
<feColorMatrix type="matrix" values="0 0 0 0 0 0 0 0 0 0 0 0 0 0 0 0 0 0 0.1 0"/>
<feBlend mode="normal" in2="shape" result="effect1_innerShadow_7214_3728"/>
<feColorMatrix in="SourceAlpha" type="matrix" values="0 0 0 0 0 0 0 0 0 0 0 0 0 0 0 0 0 0 127 0" result="hardAlpha"/>
<feOffset dx="1" dy="1.5"/>
<feGaussianBlur stdDeviation="2"/>
<feComposite in2="hardAlpha" operator="arithmetic" k2="-1" k3="1"/>
<feColorMatrix type="matrix" values="0 0 0 0 0 0 0 0 0 0 0 0 0 0 0 0 0 0 0.08 0"/>
<feBlend mode="overlay" in2="effect1_innerShadow_7214_3728" result="effect2_innerShadow_7214_3728"/>
<feColorMatrix in="SourceAlpha" type="matrix" values="0 0 0 0 0 0 0 0 0 0 0 0 0 0 0 0 0 0 127 0" result="hardAlpha"/>
<feOffset dy="-0.5"/>
<feGaussianBlur stdDeviation="0.5"/>
<feComposite in2="hardAlpha" operator="arithmetic" k2="-1" k3="1"/>
<feColorMatrix type="matrix" values="0 0 0 0 1 0 0 0 0 1 0 0 0 0 1 0 0 0 0.25 0"/>
<feBlend mode="normal" in2="effect2_innerShadow_7214_3728" result="effect3_innerShadow_7214_3728"/>
<feColorMatrix in="SourceAlpha" type="matrix" values="0 0 0 0 0 0 0 0 0 0 0 0 0 0 0 0 0 0 127 0" result="hardAlpha"/>
<feOffset dy="-0.5"/>
<feGaussianBlur stdDeviation="0.5"/>
<feComposite in2="hardAlpha" operator="arithmetic" k2="-1" k3="1"/>
<feColorMatrix type="matrix" values="0 0 0 0 1 0 0 0 0 1 0 0 0 0 1 0 0 0 0.3 0"/>
<feBlend mode="overlay" in2="effect3_innerShadow_7214_3728" result="effect4_innerShadow_7214_3728"/>
</filter>
</defs>
</svg>
