<svg width="256" height="256" viewBox="0 0 256 256" fill="none" xmlns="http://www.w3.org/2000/svg">
<path opacity="0.2" fill-rule="evenodd" clip-rule="evenodd" d="M137.6 32H118.4C100.214 32 87.5373 32.0124 77.6678 32.8188C67.9852 33.6099 62.4221 35.0847 58.2085 37.2317C49.1767 41.8336 41.8336 49.1767 37.2317 58.2085C35.0847 62.4221 33.6099 67.9852 32.8188 77.6678C32.0124 87.5373 32 100.214 32 118.4V137.6C32 155.786 32.0124 168.463 32.8188 178.332C33.6099 188.015 35.0847 193.578 37.2317 197.792C41.8336 206.823 49.1767 214.166 58.2085 218.768C62.4221 220.915 67.9852 222.39 77.6678 223.181C87.5373 223.988 100.214 224 118.4 224H137.6C155.786 224 168.463 223.988 178.332 223.181C188.015 222.39 193.578 220.915 197.792 218.768C206.823 214.166 214.166 206.823 218.768 197.792C220.915 193.578 222.39 188.015 223.181 178.332C223.988 168.463 224 155.786 224 137.6V118.4C224 100.214 223.988 87.5373 223.181 77.6678C222.39 67.9852 220.915 62.4221 218.768 58.2085C214.166 49.1767 206.823 41.8336 197.792 37.2317C193.578 35.0847 188.015 33.6099 178.332 32.8188C168.463 32.0124 155.786 32 137.6 32ZM22.9756 50.9446C16 64.635 16 82.5566 16 118.4V137.6C16 173.443 16 191.365 22.9756 205.055C29.1115 217.098 38.9022 226.889 50.9446 233.024C64.635 240 82.5566 240 118.4 240H137.6C173.443 240 191.365 240 205.055 233.024C217.098 226.889 226.889 217.098 233.024 205.055C240 191.365 240 173.443 240 137.6V118.4C240 82.5566 240 64.635 233.024 50.9446C226.889 38.9022 217.098 29.1115 205.055 22.9756C191.365 16 173.443 16 137.6 16H118.4C82.5566 16 64.635 16 50.9446 22.9756C38.9022 29.1115 29.1115 38.9022 22.9756 50.9446Z" fill="black"/>
</svg>
