<svg width="256" height="256" viewBox="0 0 256 256" fill="none" xmlns="http://www.w3.org/2000/svg">
<path opacity="0.04" d="M0 64C0 46.3269 14.3269 32 32 32H224C241.673 32 256 46.3269 256 64V192C256 209.673 241.673 224 224 224H32C14.3269 224 0 209.673 0 192V64Z" fill="black"/>
<path fill-rule="evenodd" clip-rule="evenodd" d="M224 32C241.673 32 256 46.3269 256 64V192C256 209.673 241.673 224 224 224H32C14.3269 224 0 209.673 0 192V64C0 46.3269 14.3269 32 32 32H224ZM172 40H32C18.7452 40 8 50.7452 8 64V92H59C77.2254 92 92 106.775 92 125V216H172V40ZM180 216H224C237.255 216 248 205.255 248 192V189.846H180V216ZM248 181.846V141.641H180V181.846H248ZM248 133.641V93.4359H180V133.641H248ZM248 85.4359V64C248 50.7452 237.255 40 224 40H180V85.4359H248ZM8 137.854V100H59C72.8071 100 84 111.193 84 125V137.854H8ZM8 183.707V145.854H84V183.707H8ZM8 192V191.707H84V216H32C18.7452 216 8 205.255 8 192Z" fill="black"/>
</svg>
