<svg width="256" height="256" viewBox="0 0 256 256" fill="none" xmlns="http://www.w3.org/2000/svg">
<path d="M172 156C172 159.182 170.736 162.235 168.485 164.485C166.235 166.735 163.183 168 160 168H96C92.8174 168 89.7652 166.735 87.5147 164.485C85.2643 162.235 84 159.182 84 156C84 152.817 85.2643 149.765 87.5147 147.514C89.7652 145.264 92.8174 144 96 144H160C163.183 144 166.235 145.264 168.485 147.514C170.736 149.765 172 152.817 172 156ZM160 104H96C92.8174 104 89.7652 105.264 87.5147 107.514C85.2643 109.765 84 112.817 84 116C84 119.182 85.2643 122.235 87.5147 124.485C89.7652 126.735 92.8174 128 96 128H160C163.183 128 166.235 126.735 168.485 124.485C170.736 122.235 172 119.182 172 116C172 112.817 170.736 109.765 168.485 107.514C166.235 105.264 163.183 104 160 104ZM220 47.9997V216C220 221.304 217.893 226.391 214.142 230.142C210.391 233.893 205.304 236 200 236H56C50.6957 236 45.6086 233.893 41.8579 230.142C38.1071 226.391 36 221.304 36 216V47.9997C36 42.6954 38.1071 37.6083 41.8579 33.8576C45.6086 30.1069 50.6957 27.9997 56 27.9997H90.53C95.3728 22.9426 101.189 18.9181 107.629 16.1687C114.068 13.4193 120.998 12.002 128 12.002C135.002 12.002 141.932 13.4193 148.371 16.1687C154.811 18.9181 160.627 22.9426 165.47 27.9997H200C205.304 27.9997 210.391 30.1069 214.142 33.8576C217.893 37.6083 220 42.6954 220 47.9997ZM128 35.9997C121.267 36.0004 114.761 38.4269 109.671 42.8346C104.582 47.2424 101.252 53.3362 100.29 59.9997H155.71C154.748 53.3362 151.418 47.2424 146.329 42.8346C141.239 38.4269 134.733 36.0004 128 35.9997ZM196 51.9997H178.59C179.524 55.9316 179.997 59.9586 180 63.9997V71.9997C180 75.1823 178.736 78.2346 176.485 80.485C174.235 82.7355 171.183 83.9997 168 83.9997H88C84.8174 83.9997 81.7652 82.7355 79.5147 80.485C77.2643 78.2346 76 75.1823 76 71.9997V63.9997C76.0033 59.9586 76.4765 55.9316 77.41 51.9997H60V212H196V51.9997Z" fill="black"/>
</svg>
