<svg width="256" height="256" viewBox="0 0 256 256" fill="none" xmlns="http://www.w3.org/2000/svg">
<path d="M168 152C168 154.121 167.157 156.156 165.657 157.656C164.157 159.157 162.122 160 160 160H96C93.8783 160 91.8434 159.157 90.3431 157.656C88.8429 156.156 88 154.121 88 152C88 149.878 88.8429 147.843 90.3431 146.343C91.8434 144.842 93.8783 144 96 144H160C162.122 144 164.157 144.842 165.657 146.343C167.157 147.843 168 149.878 168 152ZM160 112H96C93.8783 112 91.8434 112.842 90.3431 114.343C88.8429 115.843 88 117.878 88 120C88 122.121 88.8429 124.156 90.3431 125.656C91.8434 127.157 93.8783 128 96 128H160C162.122 128 164.157 127.157 165.657 125.656C167.157 124.156 168 122.121 168 120C168 117.878 167.157 115.843 165.657 114.343C164.157 112.842 162.122 112 160 112ZM216 47.9995V216C216 220.243 214.314 224.313 211.314 227.313C208.313 230.314 204.243 232 200 232H56C51.7565 232 47.6869 230.314 44.6863 227.313C41.6857 224.313 40 220.243 40 216V47.9995C40 43.7561 41.6857 39.6864 44.6863 36.6858C47.6869 33.6852 51.7565 31.9995 56 31.9995H92.26C96.755 26.9668 102.262 22.9401 108.421 20.1831C114.58 17.4261 121.252 16.001 128 16.001C134.748 16.001 141.42 17.4261 147.579 20.1831C153.738 22.9401 159.245 26.9668 163.74 31.9995H200C204.243 31.9995 208.313 33.6852 211.314 36.6858C214.314 39.6864 216 43.7561 216 47.9995ZM96 63.9995H160C160 55.5126 156.629 47.3733 150.627 41.3721C144.626 35.3709 136.487 31.9995 128 31.9995C119.513 31.9995 111.374 35.3709 105.373 41.3721C99.3714 47.3733 96 55.5126 96 63.9995ZM200 47.9995H173.25C175.07 53.1377 176 58.5486 176 63.9995V71.9995C176 74.1213 175.157 76.1561 173.657 77.6564C172.157 79.1567 170.122 79.9995 168 79.9995H88C85.8783 79.9995 83.8434 79.1567 82.3431 77.6564C80.8429 76.1561 80 74.1213 80 71.9995V63.9995C80.0002 58.5486 80.9302 53.1377 82.75 47.9995H56V216H200V47.9995Z" fill="black"/>
</svg>
