<svg width="256" height="256" viewBox="0 0 256 256" fill="none" xmlns="http://www.w3.org/2000/svg">
<path d="M200 31.9995H163.74C159.245 26.9668 153.738 22.9401 147.579 20.1831C141.42 17.4261 134.748 16.001 128 16.001C121.252 16.001 114.58 17.4261 108.421 20.1831C102.262 22.9401 96.755 26.9668 92.26 31.9995H56C51.7565 31.9995 47.6869 33.6852 44.6863 36.6858C41.6857 39.6864 40 43.7561 40 47.9995V216C40 220.243 41.6857 224.313 44.6863 227.313C47.6869 230.314 51.7565 232 56 232H200C204.243 232 208.313 230.314 211.314 227.313C214.314 224.313 216 220.243 216 216V47.9995C216 43.7561 214.314 39.6864 211.314 36.6858C208.313 33.6852 204.243 31.9995 200 31.9995ZM128 31.9995C136.487 31.9995 144.626 35.3709 150.627 41.3721C156.629 47.3733 160 55.5126 160 63.9995H96C96 55.5126 99.3714 47.3733 105.373 41.3721C111.374 35.3709 119.513 31.9995 128 31.9995ZM160 160H96C93.8783 160 91.8434 159.157 90.3431 157.656C88.8429 156.156 88 154.121 88 152C88 149.878 88.8429 147.843 90.3431 146.343C91.8434 144.842 93.8783 144 96 144H160C162.122 144 164.157 144.842 165.657 146.343C167.157 147.843 168 149.878 168 152C168 154.121 167.157 156.156 165.657 157.656C164.157 159.157 162.122 160 160 160ZM160 128H96C93.8783 128 91.8434 127.157 90.3431 125.656C88.8429 124.156 88 122.121 88 120C88 117.878 88.8429 115.843 90.3431 114.343C91.8434 112.842 93.8783 112 96 112H160C162.122 112 164.157 112.842 165.657 114.343C167.157 115.843 168 117.878 168 120C168 122.121 167.157 124.156 165.657 125.656C164.157 127.157 162.122 128 160 128Z" fill="black"/>
</svg>
