<svg width="256" height="256" viewBox="0 0 256 256" fill="none" xmlns="http://www.w3.org/2000/svg">
<path d="M164 152C164 153.061 163.579 154.078 162.828 154.828C162.078 155.578 161.061 156 160 156H96C94.9391 156 93.9217 155.578 93.1716 154.828C92.4214 154.078 92 153.061 92 152C92 150.939 92.4214 149.922 93.1716 149.171C93.9217 148.421 94.9391 148 96 148H160C161.061 148 162.078 148.421 162.828 149.171C163.579 149.922 164 150.939 164 152ZM160 116H96C94.9391 116 93.9217 116.421 93.1716 117.171C92.4214 117.922 92 118.939 92 120C92 121.061 92.4214 122.078 93.1716 122.828C93.9217 123.578 94.9391 124 96 124H160C161.061 124 162.078 123.578 162.828 122.828C163.579 122.078 164 121.061 164 120C164 118.939 163.579 117.922 162.828 117.171C162.078 116.421 161.061 116 160 116ZM212 47.9998V216C212 219.182 210.736 222.235 208.485 224.485C206.235 226.736 203.183 228 200 228H56C52.8174 228 49.7652 226.736 47.5147 224.485C45.2643 222.235 44 219.182 44 216V47.9998C44 44.8172 45.2643 41.765 47.5147 39.5145C49.7652 37.2641 52.8174 35.9998 56 35.9998H94.08C98.2083 31.0032 103.39 26.9803 109.253 24.2188C115.117 21.4573 121.519 20.0254 128 20.0254C134.481 20.0254 140.883 21.4573 146.747 24.2188C152.61 26.9803 157.792 31.0032 161.92 35.9998H200C203.183 35.9998 206.235 37.2641 208.485 39.5145C210.736 41.765 212 44.8172 212 47.9998ZM92 63.9998V67.9998H164V63.9998C164 54.452 160.207 45.2953 153.456 38.544C146.705 31.7926 137.548 27.9998 128 27.9998C118.452 27.9998 109.295 31.7926 102.544 38.544C95.7928 45.2953 92 54.452 92 63.9998ZM204 47.9998C204 46.9389 203.579 45.9215 202.828 45.1714C202.078 44.4212 201.061 43.9998 200 43.9998H167.17C170.348 50.1872 172.004 57.0438 172 63.9998V71.9998C172 73.0607 171.579 74.0781 170.828 74.8282C170.078 75.5784 169.061 75.9998 168 75.9998H88C86.9391 75.9998 85.9217 75.5784 85.1716 74.8282C84.4214 74.0781 84 73.0607 84 71.9998V63.9998C83.9957 57.0438 85.6515 50.1872 88.83 43.9998H56C54.9391 43.9998 53.9217 44.4212 53.1716 45.1714C52.4214 45.9215 52 46.9389 52 47.9998V216C52 217.061 52.4214 218.078 53.1716 218.828C53.9217 219.578 54.9391 220 56 220H200C201.061 220 202.078 219.578 202.828 218.828C203.579 218.078 204 217.061 204 216V47.9998Z" fill="black"/>
</svg>
