<svg width="256" height="256" viewBox="0 0 256 256" fill="none" xmlns="http://www.w3.org/2000/svg">
<path d="M166 152C166 153.591 165.368 155.118 164.243 156.243C163.117 157.368 161.591 158 160 158H96C94.4087 158 92.8826 157.368 91.7574 156.243C90.6321 155.118 90 153.591 90 152C90 150.409 90.6321 148.883 91.7574 147.758C92.8826 146.632 94.4087 146 96 146H160C161.591 146 163.117 146.632 164.243 147.758C165.368 148.883 166 150.409 166 152ZM160 114H96C94.4087 114 92.8826 114.632 91.7574 115.758C90.6321 116.883 90 118.409 90 120C90 121.591 90.6321 123.118 91.7574 124.243C92.8826 125.368 94.4087 126 96 126H160C161.591 126 163.117 125.368 164.243 124.243C165.368 123.118 166 121.591 166 120C166 118.409 165.368 116.883 164.243 115.758C163.117 114.632 161.591 114 160 114ZM214 48.0001V216C214 219.713 212.525 223.274 209.899 225.9C207.274 228.525 203.713 230 200 230H56C52.287 230 48.726 228.525 46.1005 225.9C43.475 223.274 42 219.713 42 216V48.0001C42 44.2871 43.475 40.7262 46.1005 38.1007C48.726 35.4751 52.287 34.0001 56 34.0001H93.17C97.48 28.9812 102.824 24.953 108.835 22.1914C114.847 19.4298 121.384 18 128 18C134.616 18 141.153 19.4298 147.165 22.1914C153.176 24.953 158.52 28.9812 162.83 34.0001H200C203.713 34.0001 207.274 35.4751 209.899 38.1007C212.525 40.7262 214 44.2871 214 48.0001ZM94 64.0001V66.0001H162V64.0001C162 54.9828 158.418 46.3348 152.042 39.9585C145.665 33.5823 137.017 30.0001 128 30.0001C118.983 30.0001 110.335 33.5823 103.958 39.9585C97.5821 46.3348 94 54.9828 94 64.0001ZM202 48.0001C202 47.4697 201.789 46.961 201.414 46.5859C201.039 46.2109 200.53 46.0001 200 46.0001H170.33C172.757 51.6905 174.006 57.8138 174 64.0001V72.0001C174 73.5914 173.368 75.1176 172.243 76.2428C171.117 77.368 169.591 78.0001 168 78.0001H88C86.4087 78.0001 84.8826 77.368 83.7574 76.2428C82.6321 75.1176 82 73.5914 82 72.0001V64.0001C81.9943 57.8138 83.2428 51.6905 85.67 46.0001H56C55.4696 46.0001 54.9609 46.2109 54.5858 46.5859C54.2107 46.961 54 47.4697 54 48.0001V216C54 216.531 54.2107 217.039 54.5858 217.414C54.9609 217.789 55.4696 218 56 218H200C200.53 218 201.039 217.789 201.414 217.414C201.789 217.039 202 216.531 202 216V48.0001Z" fill="black"/>
</svg>
