<svg width="256" height="256" viewBox="0 0 256 256" fill="none" xmlns="http://www.w3.org/2000/svg">
<path d="M82.7447 71.431C79.6206 68.3068 74.5552 68.3068 71.431 71.431C68.3068 74.5552 68.3068 79.6206 71.431 82.7447L116.686 128L71.4316 173.254C68.3074 176.379 68.3074 181.444 71.4316 184.568C74.5558 187.692 79.6212 187.692 82.7453 184.568L128 139.314L173.254 184.568C176.379 187.692 181.444 187.692 184.568 184.568C187.692 181.444 187.692 176.379 184.568 173.254L139.314 128L184.569 82.7448C187.693 79.6206 187.693 74.5552 184.569 71.431C181.445 68.3069 176.379 68.3069 173.255 71.431L128 116.686L82.7447 71.431Z" fill="black"/>
</svg>
