<svg width="256" height="256" viewBox="0 0 256 256" fill="none" xmlns="http://www.w3.org/2000/svg">
<path d="M216 36H88C86.9391 36 85.9217 36.4214 85.1716 37.1716C84.4214 37.9217 84 38.9391 84 40V84H40C38.9391 84 37.9217 84.4214 37.1716 85.1716C36.4214 85.9217 36 86.9391 36 88V216C36 217.061 36.4214 218.078 37.1716 218.828C37.9217 219.579 38.9391 220 40 220H168C169.061 220 170.078 219.579 170.828 218.828C171.579 218.078 172 217.061 172 216V172H216C217.061 172 218.078 171.579 218.828 170.828C219.579 170.078 220 169.061 220 168V40C220 38.9391 219.579 37.9217 218.828 37.1716C218.078 36.4214 217.061 36 216 36ZM164 212H44V92H164V212ZM212 164H172V88C172 86.9391 171.579 85.9217 170.828 85.1716C170.078 84.4214 169.061 84 168 84H92V44H212V164Z" fill="black"/>
</svg>
