<svg width="256" height="256" viewBox="0 0 256 256" fill="none" xmlns="http://www.w3.org/2000/svg">
<path d="M216 28H88C84.8174 28 81.7652 29.2643 79.5147 31.5147C77.2643 33.7652 76 36.8174 76 40V76H40C36.8174 76 33.7652 77.2643 31.5147 79.5147C29.2643 81.7652 28 84.8174 28 88V216C28 219.183 29.2643 222.235 31.5147 224.485C33.7652 226.736 36.8174 228 40 228H168C171.183 228 174.235 226.736 176.485 224.485C178.736 222.235 180 219.183 180 216V180H216C219.183 180 222.235 178.736 224.485 176.485C226.736 174.235 228 171.183 228 168V40C228 36.8174 226.736 33.7652 224.485 31.5147C222.235 29.2643 219.183 28 216 28ZM156 204H52V100H156V204ZM204 156H180V88C180 84.8174 178.736 81.7652 176.485 79.5147C174.235 77.2643 171.183 76 168 76H100V52H204V156Z" fill="black"/>
</svg>
