<svg width="256" height="256" viewBox="0 0 256 256" fill="none" xmlns="http://www.w3.org/2000/svg">
<path d="M216 34H88C86.4087 34 84.8826 34.6321 83.7574 35.7574C82.6321 36.8826 82 38.4087 82 40V82H40C38.4087 82 36.8826 82.6321 35.7574 83.7574C34.6321 84.8826 34 86.4087 34 88V216C34 217.591 34.6321 219.117 35.7574 220.243C36.8826 221.368 38.4087 222 40 222H168C169.591 222 171.117 221.368 172.243 220.243C173.368 219.117 174 217.591 174 216V174H216C217.591 174 219.117 173.368 220.243 172.243C221.368 171.117 222 169.591 222 168V40C222 38.4087 221.368 36.8826 220.243 35.7574C219.117 34.6321 217.591 34 216 34ZM162 210H46V94H162V210ZM210 162H174V88C174 86.4087 173.368 84.8826 172.243 83.7574C171.117 82.6321 169.591 82 168 82H94V46H210V162Z" fill="black"/>
</svg>
