<svg width="256" height="256" viewBox="0 0 256 256" fill="none" xmlns="http://www.w3.org/2000/svg">
<path d="M0 128C0 98.2409 0 83.3614 3.27112 71.1534C12.148 38.0245 38.0245 12.148 71.1534 3.27112C83.3614 0 98.2409 0 128 0C157.759 0 172.639 0 184.847 3.27112C217.975 12.148 243.852 38.0245 252.729 71.1534C256 83.3614 256 98.2409 256 128C256 157.759 256 172.639 252.729 184.847C243.852 217.975 217.975 243.852 184.847 252.729C172.639 256 157.759 256 128 256C98.2409 256 83.3614 256 71.1534 252.729C38.0245 243.852 12.148 217.975 3.27112 184.847C0 172.639 0 157.759 0 128Z" fill="black" fill-opacity="0.04"/>
<path d="M128 252V256C126.783 256 125.59 255.985 124.422 255.984V252C125.589 252 126.783 252 128 252ZM131.578 252V255.984C130.41 255.985 129.217 256 128 256V252C129.217 252 130.411 252 131.578 252ZM117.305 251.992L117.297 255.969C114.799 255.964 112.422 255.961 110.156 255.945L110.188 251.961C112.443 251.976 114.813 251.987 117.305 251.992ZM145.828 253.961L145.836 255.945C143.57 255.961 141.193 255.964 138.695 255.969V251.992C141.187 251.987 143.557 251.976 145.812 251.961L145.828 253.961ZM103.086 251.883L103.047 253.875L103.055 253.883L103.047 254.242L103.016 255.867C100.495 255.825 98.127 255.765 95.8906 255.688L96.0234 251.711C98.2321 251.788 100.581 251.841 103.086 251.883ZM160.102 255.688C157.865 255.765 155.497 255.825 152.977 255.867L152.953 254.242L152.945 253.883L152.914 251.883C155.419 251.841 157.768 251.788 159.977 251.711L160.102 255.688ZM82.1406 250.734C84.2703 250.994 86.5545 251.202 89.0312 251.367L88.7656 255.328C86.2283 255.159 83.873 254.958 81.6562 254.688L82.1406 250.734ZM174.336 254.688C172.119 254.958 169.764 255.159 167.227 255.328L166.969 251.367C169.445 251.202 171.73 250.994 173.859 250.734L174.336 254.688ZM72.1875 248.867C73.2446 249.15 74.3281 249.406 75.4453 249.641L74.625 253.547C73.4398 253.298 72.2831 253.032 71.1534 252.729C69.7991 252.366 68.4622 251.958 67.1328 251.539L67.7344 249.648L68.3359 247.742C69.6079 248.143 70.8915 248.52 72.1875 248.867ZM188.266 249.648L188.859 251.539C187.532 251.957 186.199 252.367 184.847 252.729C183.714 253.032 182.555 253.297 181.367 253.547L180.555 249.641C181.672 249.406 182.755 249.15 183.812 248.867C185.108 248.52 186.392 248.143 187.664 247.742L188.266 249.648ZM53.5156 241.609C55.8805 242.84 58.3071 243.972 60.7891 245L59.2578 248.688C56.6676 247.615 54.14 246.426 51.6719 245.141L53.5156 241.609ZM204.32 245.141C201.852 246.425 199.325 247.615 196.734 248.688L195.211 245C197.693 243.972 200.12 242.84 202.484 241.609L204.32 245.141ZM39.9922 232.992C42.1116 234.619 44.3094 236.153 46.5703 237.594L44.4141 240.953C42.0559 239.45 39.7652 237.853 37.5547 236.156L39.9922 232.992ZM218.438 236.156C216.227 237.853 213.937 239.45 211.578 240.953L209.43 237.594C211.691 236.153 213.888 234.619 216.008 232.992L218.438 236.156ZM28.1719 222.156C29.9792 224.128 31.8717 226.021 33.8438 227.828L31.1484 230.766C29.0892 228.878 27.1136 226.903 25.2266 224.844L28.1719 222.156ZM230.766 224.844C228.878 226.903 226.903 228.878 224.844 230.766L222.156 227.828C224.128 226.021 226.021 224.128 227.828 222.156L230.766 224.844ZM18.4062 209.43C19.847 211.691 21.3811 213.888 23.0078 216.008L19.8359 218.438C18.1394 216.227 16.5418 213.936 15.0391 211.578L16.7188 210.508L18.4062 209.43ZM240.953 211.578C239.45 213.937 237.853 216.227 236.156 218.438L232.992 216.008C234.619 213.888 236.153 211.691 237.594 209.43L240.953 211.578ZM11 195.211C12.0277 197.693 13.1596 200.12 14.3906 202.484L10.8516 204.32C9.56691 201.852 8.37706 199.325 7.30469 196.734L9.15625 195.977L11 195.211ZM245 195.211L248.688 196.734C247.615 199.325 246.425 201.852 245.141 204.32L241.609 202.484C242.84 200.12 243.972 197.693 245 195.211ZM7.13281 183.812C7.48007 185.108 7.85696 186.392 8.25781 187.664L6.35156 188.266L4.45312 188.859C4.03521 187.533 3.63315 186.198 3.27112 184.847C2.96767 183.714 2.69506 182.556 2.44531 181.367L6.35938 180.555C6.59434 181.672 6.84956 182.755 7.13281 183.812ZM253.547 181.367C253.297 182.555 253.032 183.714 252.729 184.847C252.367 186.199 251.957 187.532 251.539 188.859L249.648 188.266L247.742 187.664C248.143 186.392 248.52 185.108 248.867 183.812C249.15 182.755 249.406 181.672 249.641 180.555L253.547 181.367ZM4.63281 166.969C4.79826 169.445 5.00597 171.73 5.26562 173.859L1.30469 174.336C1.03451 172.119 0.83341 169.764 0.664062 167.227L4.63281 166.969ZM255.328 167.227C255.159 169.764 254.958 172.119 254.688 174.336L250.734 173.859C250.994 171.73 251.202 169.445 251.367 166.969L255.328 167.227ZM4.28906 159.977L0.304688 160.102C0.227157 157.865 0.166927 155.497 0.125 152.977L4.11719 152.914C4.15887 155.419 4.21242 157.768 4.28906 159.977ZM255.867 152.977C255.825 155.497 255.765 157.865 255.688 160.102L251.711 159.977C251.788 157.768 251.841 155.419 251.883 152.914L255.867 152.977ZM4.03906 145.812L2.03906 145.828L0.046875 145.836C0.0313173 143.57 0.0285289 141.193 0.0234375 138.695H4.00781C4.0129 141.187 4.02357 143.557 4.03906 145.812ZM255.969 138.695C255.964 141.193 255.961 143.57 255.945 145.836L253.961 145.828L251.961 145.812C251.976 143.557 251.987 141.187 251.992 138.695H255.969ZM0 128C0 126.783 0.0075886 125.59 0.0078125 124.422H4V131.578H0.0078125C0.0075886 130.41 0 129.217 0 128ZM255.992 131.578H252V124.422H255.992C255.992 125.59 256 126.783 256 128C256 129.217 255.992 130.41 255.992 131.578ZM4.03906 110.188C4.02357 112.443 4.0129 114.813 4.00781 117.305L0.0234375 117.297C0.0285373 114.799 0.0313004 112.422 0.046875 110.156L4.03906 110.188ZM255.969 117.297L251.992 117.305C251.987 114.813 251.976 112.443 251.961 110.188L255.945 110.156C255.961 112.422 255.964 114.799 255.969 117.297ZM4.28906 96.0234C4.21242 98.2321 4.15887 100.581 4.11719 103.086L2.11719 103.047L0.125 103.016C0.166964 100.495 0.227099 98.1269 0.304688 95.8906L4.28906 96.0234ZM255.688 95.8906C255.765 98.127 255.825 100.495 255.867 103.016L253.883 103.055L253.875 103.047L251.883 103.086C251.841 100.581 251.788 98.2321 251.711 96.0234L255.688 95.8906ZM5.26562 82.1406C5.00597 84.2703 4.79826 86.5545 4.63281 89.0312L0.664062 88.7656C0.833524 86.2284 1.03434 83.8729 1.30469 81.6562L5.26562 82.1406ZM254.688 81.6562C254.958 83.873 255.159 86.2283 255.328 88.7656L251.367 89.0312C251.202 86.5545 250.994 84.2703 250.734 82.1406L254.688 81.6562ZM8.25781 68.3359C7.85696 69.6079 7.48007 70.8915 7.13281 72.1875C6.84956 73.2446 6.59434 74.3281 6.35938 75.4453L2.44531 74.625C2.52649 74.239 2.60866 73.856 2.69531 73.4766L3.27112 71.1534C3.63379 69.7999 4.03436 68.4614 4.45312 67.1328L8.25781 68.3359ZM251.539 67.1328C251.958 68.4622 252.366 69.7991 252.729 71.1534C253.032 72.2831 253.298 73.4398 253.547 74.625L249.641 75.4453C249.406 74.3281 249.15 73.2446 248.867 72.1875C248.52 70.8915 248.143 69.6079 247.742 68.3359L251.539 67.1328ZM14.3906 53.5156C13.1595 55.8805 12.0277 58.3071 11 60.7891L7.30469 59.2578C8.37722 56.6677 9.56677 54.1398 10.8516 51.6719L14.3906 53.5156ZM245.141 51.6719C246.426 54.14 247.615 56.6676 248.688 59.2578L245 60.7891C243.972 58.3071 242.84 55.8805 241.609 53.5156L245.141 51.6719ZM19.8359 37.5547L23.0078 39.9922C21.3811 42.1116 19.847 44.3094 18.4062 46.5703L15.0391 44.4141C16.5419 42.056 18.1393 39.7651 19.8359 37.5547ZM236.156 37.5547C237.853 39.7652 239.45 42.0559 240.953 44.4141L237.594 46.5703C236.153 44.3094 234.619 42.1116 232.992 39.9922L236.156 37.5547ZM33.8438 28.1719C31.8717 29.9792 29.9792 31.8717 28.1719 33.8438L25.2266 31.1484C27.1136 29.0892 29.0892 27.1136 31.1484 25.2266L33.8438 28.1719ZM224.844 25.2266C226.903 27.1136 228.878 29.0892 230.766 31.1484L227.828 33.8438C226.021 31.8717 224.128 29.9792 222.156 28.1719L224.844 25.2266ZM46.5703 18.4062C44.3094 19.847 42.1116 21.3811 39.9922 23.0078L37.5547 19.8359C39.7651 18.1393 42.056 16.5419 44.4141 15.0391L46.5703 18.4062ZM211.578 15.0391C213.936 16.5418 216.227 18.1394 218.438 19.8359L216.008 23.0078C213.888 21.3811 211.691 19.847 209.43 18.4062L211.578 15.0391ZM60.7891 11C58.3071 12.0277 55.8805 13.1596 53.5156 14.3906L51.6719 10.8516C54.1398 9.56677 56.6677 8.37722 59.2578 7.30469L60.7891 11ZM196.734 7.30469C199.325 8.37706 201.852 9.56691 204.32 10.8516L202.484 14.3906C200.12 13.1595 197.693 12.0277 195.211 11L196.734 7.30469ZM75.4453 6.35938C74.3281 6.59434 73.2446 6.84956 72.1875 7.13281C70.8915 7.48007 69.6079 7.85696 68.3359 8.25781L67.1328 4.45312C67.4453 4.35465 67.7565 4.25165 68.0703 4.15625L71.1534 3.27112C72.2836 2.96831 73.4392 2.69465 74.625 2.44531L75.4453 6.35938ZM181.367 2.44531C182.556 2.69506 183.714 2.96767 184.847 3.27112C186.198 3.63315 187.533 4.03521 188.859 4.45312L187.664 8.25781C186.392 7.85696 185.108 7.48007 183.812 7.13281C182.755 6.84956 181.672 6.59434 180.555 6.35938L181.367 2.44531ZM89.0312 4.63281C86.5545 4.79826 84.2703 5.00597 82.1406 5.26562L81.7812 2.28906L81.6562 1.30469C83.8729 1.03434 86.2284 0.833524 88.7656 0.664062L89.0312 4.63281ZM167.227 0.664062C169.764 0.83341 172.119 1.03451 174.336 1.30469L174.227 2.28906L173.859 5.26562C171.73 5.00597 169.445 4.79826 166.969 4.63281L167.227 0.664062ZM103.047 2.03906L103.086 4.11719C100.581 4.15887 98.2321 4.21242 96.0234 4.28906L95.8906 0.304688C98.1269 0.227099 100.495 0.166964 103.016 0.125L103.047 2.03906ZM152.977 0.125C155.497 0.166927 157.865 0.227157 160.102 0.304688L159.977 4.28906C157.768 4.21242 155.419 4.15887 152.914 4.11719L152.953 2.03906L152.977 0.125ZM117.305 4.00781C114.813 4.0129 112.443 4.02357 110.188 4.03906L110.156 0.046875C112.422 0.0313004 114.799 0.0285373 117.297 0.0234375L117.305 4.00781ZM145.836 0.046875L145.812 4.03906C143.557 4.02357 141.187 4.0129 138.695 4.00781V0.0234375C141.193 0.0285289 143.57 0.0313173 145.836 0.046875ZM131.578 0.0078125V4H124.422V0.0078125C125.59 0.0075886 126.783 0 128 0C129.217 0 130.41 0.0075886 131.578 0.0078125Z" fill="black" fill-opacity="0.8"/>
</svg>
