<svg width="256" height="256" viewBox="0 0 256 256" fill="none" xmlns="http://www.w3.org/2000/svg">
<path fill-rule="evenodd" clip-rule="evenodd" d="M113.067 94.4C102.757 94.4 94.4 102.757 94.4 113.067V142.933C94.4 153.243 102.757 161.6 113.067 161.6H142.933C153.243 161.6 161.6 153.243 161.6 142.933V113.067C161.6 102.757 153.243 94.4 142.933 94.4H113.067ZM72 113.067C72 90.3862 90.3862 72 113.067 72H142.933C165.614 72 184 90.3862 184 113.067V142.933C184 165.614 165.614 184 142.933 184H113.067C90.3862 184 72 165.614 72 142.933V113.067Z" fill="black"/>
</svg>
