<svg width="256" height="256" viewBox="0 0 256 256" fill="none" xmlns="http://www.w3.org/2000/svg">
<path d="M40 72H216C220.418 72 224 68.4183 224 64C224 59.5817 220.418 56 216 56H40C35.5817 56 32 59.5817 32 64C32 68.4183 35.5817 72 40 72Z" fill="black"/>
<path d="M40 136H112C116.418 136 120 132.418 120 128C120 123.582 116.418 120 112 120H40C35.5817 120 32 123.582 32 128C32 132.418 35.5817 136 40 136Z" fill="black"/>
<path d="M40 200H80C84.4183 200 88 196.418 88 192C88 187.582 84.4183 184 80 184H40C35.5817 184 32 187.582 32 192C32 196.418 35.5817 200 40 200Z" fill="black"/>
<path fill-rule="evenodd" clip-rule="evenodd" d="M173.445 101.224C176.022 94.2588 185.873 94.2588 188.45 101.224L195.877 121.292C196.687 123.482 198.413 125.209 200.603 126.019L220.672 133.445C227.637 136.022 227.637 145.873 220.672 148.45L200.603 155.877C198.413 156.687 196.687 158.413 195.877 160.603L188.45 180.672C185.873 187.637 176.022 187.637 173.445 180.672L168.181 166.447L121.488 213.141C118.078 216.551 112.781 216.783 109.657 213.659C106.532 210.534 106.764 205.237 110.174 201.827L157.521 154.481L141.224 148.45C134.259 145.873 134.259 136.022 141.224 133.445L161.292 126.019C163.482 125.209 165.209 123.482 166.019 121.292L173.445 101.224ZM177.273 125.457L180.948 115.526L184.622 125.457C186.648 130.931 190.964 135.247 196.439 137.273L206.369 140.948L196.439 144.622C190.964 146.648 186.648 150.964 184.622 156.439L180.948 166.369L177.273 156.439C175.247 150.964 170.931 146.648 165.457 144.622L155.526 140.948L165.457 137.273C170.931 135.247 175.247 130.931 177.273 125.457Z" fill="black"/>
</svg>
