<svg width="256" height="256" viewBox="0 0 256 256" fill="none" xmlns="http://www.w3.org/2000/svg">
<path fill-rule="evenodd" clip-rule="evenodd" d="M64 22.3492V233.651C64 245.994 73.8497 256 86 256H234C246.15 256 256 245.994 256 233.651V58.8101C256 52.8402 253.649 47.1183 249.471 42.9202L213.183 6.4593C209.064 2.32104 203.505 0 197.712 0H86C73.8497 0 64 10.0061 64 22.3492ZM78 233.651V22.3492C78 17.8608 81.5817 14.2222 86 14.2222H195V62.9841C195 71.3999 201.716 78.2222 210 78.2222H242V233.651C242 238.139 238.418 241.778 234 241.778H86C81.5817 241.778 78 238.139 78 233.651ZM242 64V58.8101C242 56.6392 241.145 54.5586 239.626 53.032L209 22.2604V62.9841C209 63.5452 209.448 64 210 64H242Z" fill="#9D9C9B"/>
<path fill-rule="evenodd" clip-rule="evenodd" d="M200 112H160V96H200C213.255 96 224 106.745 224 120C224 133.255 213.255 144 200 144H160V128H200C204.418 128 208 124.418 208 120C208 115.582 204.418 112 200 112Z" fill="#4EA7AF"/>
<path fill-rule="evenodd" clip-rule="evenodd" d="M200 176H160V160H200C213.255 160 224 170.745 224 184C224 197.255 213.255 208 200 208H160V192H200C204.418 192 208 188.418 208 184C208 179.582 204.418 176 200 176Z" fill="#3D9298"/>
<path d="M0 74C0 67.3726 5.37258 62 12 62H132C138.627 62 144 67.3726 144 74V194C144 200.627 138.627 206 132 206H12C5.37258 206 0 200.627 0 194V74Z" fill="#3D9298"/>
<path d="M52 172.172V92H96V108H68V124H96V140H68L68.1875 172.172H52Z" fill="white"/>
</svg>
