<svg width="256" height="256" viewBox="0 0 256 256" fill="none" xmlns="http://www.w3.org/2000/svg">
<path opacity="0.2" d="M118.652 180.35L75.6504 137.348C70.7832 132.481 70.7832 123.519 75.6504 118.652L118.652 75.6504C123.519 70.7832 132.481 70.7832 137.348 75.6504L180.35 118.652C185.217 123.519 185.217 132.481 180.35 137.348L137.348 180.35C132.481 185.217 123.519 185.217 118.652 180.35Z" fill="black"/>
<path fill-rule="evenodd" clip-rule="evenodd" d="M128 79.4725C126.238 79.4725 124.848 80.1043 124.078 80.8743L80.8743 124.078C80.1043 124.848 79.4725 126.238 79.4725 128C79.4725 129.762 80.1043 131.152 80.8743 131.922L124.078 175.126C124.848 175.896 126.238 176.527 128 176.527C129.762 176.527 131.152 175.896 131.922 175.126L175.126 131.922C175.896 131.152 176.527 129.762 176.527 128C176.527 126.238 175.896 124.848 175.126 124.078L131.922 80.8743C131.152 80.1043 129.762 79.4725 128 79.4725ZM128 64C133.185 64 138.742 65.8133 142.863 69.9335L186.066 113.137C190.187 117.258 192 122.815 192 128C192 133.185 190.187 138.742 186.066 142.863L142.863 186.066C138.742 190.187 133.185 192 128 192C122.815 192 117.258 190.187 113.137 186.066L69.9335 142.863C65.8133 138.742 64 133.185 64 128C64 122.815 65.8133 117.258 69.9335 113.137L113.137 69.9335C117.258 65.8133 122.815 64 128 64Z" fill="black"/>
</svg>
