<svg width="256" height="256" viewBox="0 0 256 256" fill="none" xmlns="http://www.w3.org/2000/svg">
<path fill-rule="evenodd" clip-rule="evenodd" d="M108 76V102.4C108 105.493 105.493 108 102.4 108H76C58.3269 108 44 93.6731 44 76C44 58.3269 58.3269 44 76 44C93.6731 44 108 58.3269 108 76ZM32 76C32 51.6995 51.6995 32 76 32C100.301 32 120 51.6995 120 76V102.4C120 112.12 112.12 120 102.4 120H76C51.6995 120 32 100.301 32 76ZM76 148H102.4C105.493 148 108 150.507 108 153.6V180C108 197.673 93.6731 212 76 212C58.3269 212 44 197.673 44 180C44 162.327 58.3269 148 76 148ZM32 180C32 155.699 51.6995 136 76 136H102.4C112.12 136 120 143.88 120 153.6V180C120 204.301 100.301 224 76 224C51.6995 224 32 204.301 32 180ZM153.6 108H180C197.673 108 212 93.6731 212 76C212 58.3269 197.673 44 180 44C162.327 44 148 58.3269 148 76V102.4C148 105.493 150.507 108 153.6 108ZM180 32C155.699 32 136 51.6995 136 76V102.4C136 112.12 143.88 120 153.6 120H180C204.301 120 224 100.301 224 76C224 51.6995 204.301 32 180 32ZM153.6 148H180C197.673 148 212 162.327 212 180C212 197.673 197.673 212 180 212C162.327 212 148 197.673 148 180V153.6C148 150.507 150.507 148 153.6 148ZM136 153.6C136 143.88 143.88 136 153.6 136H180C204.301 136 224 155.699 224 180C224 204.301 204.301 224 180 224C155.699 224 136 204.301 136 180V153.6Z" fill="black"/>
</svg>
