<svg width="256" height="256" viewBox="0 0 256 256" fill="none" xmlns="http://www.w3.org/2000/svg">
<path fill-rule="evenodd" clip-rule="evenodd" d="M112 76V102.4C112 107.702 107.702 112 102.4 112H76C56.1178 112 40 95.8823 40 76C40 56.1178 56.1178 40 76 40C95.8823 40 112 56.1178 112 76ZM32 76C32 51.6995 51.6995 32 76 32C100.301 32 120 51.6995 120 76V102.4C120 112.12 112.12 120 102.4 120H76C51.6995 120 32 100.301 32 76ZM76 144H102.4C107.702 144 112 148.298 112 153.6V180C112 199.882 95.8823 216 76 216C56.1178 216 40 199.882 40 180C40 160.118 56.1178 144 76 144ZM32 180C32 155.699 51.6995 136 76 136H102.4C112.12 136 120 143.88 120 153.6V180C120 204.301 100.301 224 76 224C51.6995 224 32 204.301 32 180ZM153.6 112H180C199.882 112 216 95.8823 216 76C216 56.1178 199.882 40 180 40C160.118 40 144 56.1178 144 76V102.4C144 107.702 148.298 112 153.6 112ZM180 32C155.699 32 136 51.6995 136 76V102.4C136 112.12 143.88 120 153.6 120H180C204.301 120 224 100.301 224 76C224 51.6995 204.301 32 180 32ZM153.6 144H180C199.882 144 216 160.118 216 180C216 199.882 199.882 216 180 216C160.118 216 144 199.882 144 180V153.6C144 148.298 148.298 144 153.6 144ZM136 153.6C136 143.88 143.88 136 153.6 136H180C204.301 136 224 155.699 224 180C224 204.301 204.301 224 180 224C155.699 224 136 204.301 136 180V153.6Z" fill="black"/>
</svg>
