<svg width="256" height="256" viewBox="0 0 256 256" fill="none" xmlns="http://www.w3.org/2000/svg">
<g opacity="0.2">
<path d="M76 32C51.6995 32 32 51.6995 32 76C32 100.301 51.6995 120 76 120H102.4C112.12 120 120 112.12 120 102.4V76C120 51.6995 100.301 32 76 32Z" fill="black"/>
<path d="M76 136C51.6995 136 32 155.699 32 180C32 204.301 51.6995 224 76 224C100.301 224 120 204.301 120 180V153.6C120 143.88 112.12 136 102.4 136H76Z" fill="black"/>
<path d="M136 76C136 51.6995 155.699 32 180 32C204.301 32 224 51.6995 224 76C224 100.301 204.301 120 180 120H153.6C143.88 120 136 112.12 136 102.4V76Z" fill="black"/>
<path d="M153.6 136C143.88 136 136 143.88 136 153.6V180C136 204.301 155.699 224 180 224C204.301 224 224 204.301 224 180C224 155.699 204.301 136 180 136H153.6Z" fill="black"/>
</g>
<path fill-rule="evenodd" clip-rule="evenodd" d="M32 76C32 51.6995 51.6995 32 76 32C100.301 32 120 51.6995 120 76V102.4C120 112.12 112.12 120 102.4 120H76C51.6995 120 32 100.301 32 76ZM104 76V102.4C104 103.284 103.284 104 102.4 104H76C60.536 104 48 91.464 48 76C48 60.536 60.536 48 76 48C91.464 48 104 60.536 104 76Z" fill="black"/>
<path fill-rule="evenodd" clip-rule="evenodd" d="M32 180C32 155.699 51.6995 136 76 136H102.4C112.12 136 120 143.88 120 153.6V180C120 204.301 100.301 224 76 224C51.6995 224 32 204.301 32 180ZM76 152H102.4C103.284 152 104 152.716 104 153.6V180C104 195.464 91.464 208 76 208C60.536 208 48 195.464 48 180C48 164.536 60.536 152 76 152Z" fill="black"/>
<path fill-rule="evenodd" clip-rule="evenodd" d="M180 32C155.699 32 136 51.6995 136 76V102.4C136 112.12 143.88 120 153.6 120H180C204.301 120 224 100.301 224 76C224 51.6995 204.301 32 180 32ZM153.6 104H180C195.464 104 208 91.464 208 76C208 60.536 195.464 48 180 48C164.536 48 152 60.536 152 76V102.4C152 103.284 152.716 104 153.6 104Z" fill="black"/>
<path fill-rule="evenodd" clip-rule="evenodd" d="M136 153.6C136 143.88 143.88 136 153.6 136H180C204.301 136 224 155.699 224 180C224 204.301 204.301 224 180 224C155.699 224 136 204.301 136 180V153.6ZM153.6 152H180C195.464 152 208 164.536 208 180C208 195.464 195.464 208 180 208C164.536 208 152 195.464 152 180V153.6C152 152.716 152.716 152 153.6 152Z" fill="black"/>
</svg>
