<svg width="256" height="256" viewBox="0 0 256 256" fill="none" xmlns="http://www.w3.org/2000/svg">
<path fill-rule="evenodd" clip-rule="evenodd" d="M76 32C51.6995 32 32 51.6995 32 76C32 100.301 51.6995 120 76 120H102.4C112.12 120 120 112.12 120 102.4V76C120 51.6995 100.301 32 76 32ZM76 136C51.6995 136 32 155.699 32 180C32 204.301 51.6995 224 76 224C100.301 224 120 204.301 120 180V153.6C120 143.88 112.12 136 102.4 136H76ZM136 76C136 51.6995 155.699 32 180 32C204.301 32 224 51.6995 224 76C224 100.301 204.301 120 180 120H153.6C143.88 120 136 112.12 136 102.4V76ZM153.6 136C143.88 136 136 143.88 136 153.6V180C136 204.301 155.699 224 180 224C204.301 224 224 204.301 224 180C224 155.699 204.301 136 180 136H153.6Z" fill="black"/>
</svg>
