<svg width="256" height="256" viewBox="0 0 256 256" fill="none" xmlns="http://www.w3.org/2000/svg">
<path fill-rule="evenodd" clip-rule="evenodd" d="M32 76C32 51.6995 51.6995 32 76 32C100.301 32 120 51.6995 120 76V102.4C120 112.12 112.12 120 102.4 120H76C51.6995 120 32 100.301 32 76ZM96 76V96H76C64.9543 96 56 87.0457 56 76C56 64.9543 64.9543 56 76 56C87.0457 56 96 64.9543 96 76Z" fill="black"/>
<path fill-rule="evenodd" clip-rule="evenodd" d="M32 180C32 155.699 51.6995 136 76 136H102.4C112.12 136 120 143.88 120 153.6V180C120 204.301 100.301 224 76 224C51.6995 224 32 204.301 32 180ZM76 160H96V180C96 191.046 87.0457 200 76 200C64.9543 200 56 191.046 56 180C56 168.954 64.9543 160 76 160Z" fill="black"/>
<path fill-rule="evenodd" clip-rule="evenodd" d="M180 32C155.699 32 136 51.6995 136 76V102.4C136 112.12 143.88 120 153.6 120H180C204.301 120 224 100.301 224 76C224 51.6995 204.301 32 180 32ZM160 96H180C191.046 96 200 87.0457 200 76C200 64.9543 191.046 56 180 56C168.954 56 160 64.9543 160 76V96Z" fill="black"/>
<path fill-rule="evenodd" clip-rule="evenodd" d="M136 153.6C136 143.88 143.88 136 153.6 136H180C204.301 136 224 155.699 224 180C224 204.301 204.301 224 180 224C155.699 224 136 204.301 136 180V153.6ZM160 180V160H180C191.046 160 200 168.954 200 180C200 191.046 191.046 200 180 200C168.954 200 160 191.046 160 180Z" fill="black"/>
</svg>
