<svg width="256" height="256" viewBox="0 0 256 256" fill="none" xmlns="http://www.w3.org/2000/svg">
<path fill-rule="evenodd" clip-rule="evenodd" d="M212.186 43.2125C216.605 43.2125 220.186 46.7942 220.186 51.2125V90.4464C220.186 94.8647 216.605 98.4464 212.186 98.4464C207.768 98.4464 204.186 94.8647 204.186 90.4464V70.5262L152.649 122.063C149.525 125.188 144.46 125.188 141.335 122.063C138.211 118.939 138.211 113.874 141.335 110.75L192.873 59.2125L172.952 59.2125C168.534 59.2125 164.952 55.6308 164.952 51.2125C164.952 46.7942 168.534 43.2125 172.952 43.2125H212.186Z" fill="black"/>
<path fill-rule="evenodd" clip-rule="evenodd" d="M39.0294 111.84L116.527 34.3431C119.651 31.219 124.716 31.219 127.84 34.3431C130.965 37.4673 130.965 42.5327 127.84 45.6569L50.3431 123.154C47.219 126.278 47.219 131.344 50.3431 134.468L125.557 209.682C128.682 212.806 133.747 212.806 136.871 209.682L214.369 132.185C217.493 129.061 222.558 129.061 225.682 132.185C228.806 135.309 228.806 140.374 225.682 143.499L148.185 220.996C138.812 230.369 123.616 230.369 114.244 220.996L39.0294 145.782C29.6569 136.409 29.6568 121.213 39.0294 111.84Z" fill="black"/>
</svg>
