<svg width="256" height="256" viewBox="0 0 256 256" fill="none" xmlns="http://www.w3.org/2000/svg">
<path fill-rule="evenodd" clip-rule="evenodd" d="M170.268 216.388C170.268 216.388 151.891 224 132 224L47.806 223.999C47.806 223.999 44.6495 224.041 41.7251 222.852C41.7251 222.852 38.8007 221.664 36.5685 219.432C36.5685 219.432 34.3363 217.199 33.1477 214.275C33.1477 214.275 31.959 211.351 32.0001 208.3L32.0001 124C32.0001 124 32.0001 104.109 39.6121 85.7317C39.6121 85.7317 47.2242 67.3545 61.2894 53.2893C61.2894 53.2893 75.3546 39.2241 93.7317 31.612C93.7317 31.612 112.109 24 132 24C132 24 151.891 24 170.268 31.612C170.268 31.612 188.646 39.2241 202.711 53.2893C202.711 53.2893 216.776 67.3546 224.388 85.7317C224.388 85.7317 232 104.109 232 124V124.022C232 124.022 231.996 143.901 224.388 162.268C224.388 162.268 216.776 180.645 202.711 194.711C202.711 194.711 188.645 208.776 170.268 216.388ZM132 40C132 40 115.291 40 99.8547 46.3941C99.8547 46.3941 84.4179 52.7882 72.6031 64.603C72.6031 64.603 60.7883 76.4178 54.3942 91.8546C54.3942 91.8546 48.0001 107.291 48.0001 124L48.0001 208.001L132 208C132 208 148.709 208 164.145 201.606C164.145 201.606 179.582 195.212 191.397 183.397C191.397 183.397 203.212 171.582 209.606 156.145C209.606 156.145 216 140.709 216 124C216 124 216 107.291 209.606 91.8546C209.606 91.8546 203.212 76.4179 191.397 64.603C191.397 64.603 179.582 52.7883 164.145 46.3941C164.145 46.3941 148.707 40.0005 132 40Z" fill="black"/>
<path d="M141.173 71.9998L139.485 145.943H123.019L121.383 71.9998H141.173ZM131.252 177.852C128.15 177.852 125.491 176.761 123.275 174.579C121.093 172.397 120.002 169.738 120.002 166.602C120.002 163.534 121.093 160.909 123.275 158.727C125.491 156.545 128.15 155.454 131.252 155.454C134.286 155.454 136.911 156.545 139.127 158.727C141.377 160.909 142.502 163.534 142.502 166.602C142.502 168.682 141.974 170.574 140.917 172.278C139.894 173.983 138.531 175.346 136.826 176.369C135.156 177.358 133.298 177.852 131.252 177.852Z" fill="black"/>
</svg>
