<svg width="256" height="256" viewBox="0 0 256 256" fill="none" xmlns="http://www.w3.org/2000/svg">
<g opacity="0.08">
<path d="M158 32C154.686 32 152 34.6863 152 38C152 41.3137 154.686 44 158 44H190C199.941 44 208 52.0589 208 62V94C208 97.3137 210.686 100 214 100C217.314 100 220 97.3137 220 94V62C220 45.4315 206.569 32 190 32H158Z" fill="black"/>
<path d="M94 220C97.3137 220 100 217.314 100 214C100 210.686 97.3137 208 94 208H62C52.0589 208 44 199.941 44 190L44 158C44 154.686 41.3137 152 38 152C34.6863 152 32 154.686 32 158V190C32 206.569 45.4315 220 62 220H94Z" fill="black"/>
<path d="M38 100C34.6863 100 32 97.3137 32 94V62C32 45.4315 45.4315 32 62 32H94C97.3137 32 100 34.6863 100 38C100 41.3137 97.3137 44 94 44L62 44C52.0589 44 44 52.0589 44 62L44 94C44 97.3137 41.3137 100 38 100Z" fill="black"/>
<path d="M220 158C220 154.686 217.314 152 214 152C210.686 152 208 154.686 208 158V190C208 199.941 199.941 208 190 208H158C154.686 208 152 210.686 152 214C152 217.314 154.686 220 158 220H190C206.569 220 220 206.569 220 190V158Z" fill="black"/>
</g>
<path d="M72.0007 166.774V160.637L95.0462 135.41C97.7507 132.456 99.978 129.887 101.728 127.706C103.478 125.501 104.773 123.433 105.614 121.501C106.478 119.546 106.91 117.501 106.91 115.365C106.91 112.91 106.319 110.785 105.137 108.99C103.978 107.194 102.387 105.808 100.364 104.831C98.3416 103.853 96.0689 103.365 93.5462 103.365C90.8644 103.365 88.5235 103.921 86.5235 105.035C84.5462 106.126 83.0121 107.66 81.9212 109.637C80.853 111.615 80.3189 113.933 80.3189 116.592H72.2735C72.2735 112.501 73.2166 108.91 75.103 105.819C76.9894 102.728 79.5576 100.319 82.8076 98.5919C86.0803 96.8646 89.7507 96.001 93.8189 96.001C97.9098 96.001 101.535 96.8646 104.694 98.5919C107.853 100.319 110.33 102.649 112.126 105.581C113.921 108.512 114.819 111.774 114.819 115.365C114.819 117.933 114.353 120.444 113.421 122.899C112.512 125.331 110.921 128.046 108.648 131.046C106.398 134.024 103.273 137.66 99.2735 141.956L83.5916 158.728V159.274H116.046V166.774H72.0007Z" fill="black"/>
<path d="M152.489 167.728C147.808 167.728 143.671 166.899 140.08 165.24C136.512 163.558 133.728 161.251 131.728 158.319C129.728 155.365 128.739 152.001 128.762 148.228C128.739 145.274 129.319 142.546 130.501 140.046C131.683 137.524 133.296 135.421 135.342 133.74C137.41 132.035 139.717 130.956 142.262 130.501V130.092C138.921 129.228 136.262 127.353 134.285 124.467C132.308 121.558 131.33 118.251 131.353 114.546C131.33 111.001 132.228 107.831 134.046 105.035C135.864 102.24 138.364 100.035 141.546 98.4214C144.751 96.8078 148.398 96.001 152.489 96.001C156.535 96.001 160.148 96.8078 163.33 98.4214C166.512 100.035 169.012 102.24 170.83 105.035C172.671 107.831 173.603 111.001 173.626 114.546C173.603 118.251 172.592 121.558 170.592 124.467C168.614 127.353 165.989 129.228 162.717 130.092V130.501C165.239 130.956 167.512 132.035 169.535 133.74C171.558 135.421 173.171 137.524 174.376 140.046C175.58 142.546 176.194 145.274 176.217 148.228C176.194 152.001 175.171 155.365 173.148 158.319C171.148 161.251 168.364 163.558 164.796 165.24C161.251 166.899 157.148 167.728 152.489 167.728ZM152.489 160.228C155.648 160.228 158.376 159.717 160.671 158.694C162.967 157.671 164.739 156.228 165.989 154.365C167.239 152.501 167.876 150.319 167.898 147.819C167.876 145.183 167.194 142.853 165.853 140.831C164.512 138.808 162.683 137.217 160.364 136.058C158.069 134.899 155.444 134.319 152.489 134.319C149.512 134.319 146.853 134.899 144.512 136.058C142.194 137.217 140.364 138.808 139.023 140.831C137.705 142.853 137.058 145.183 137.08 147.819C137.058 150.319 137.66 152.501 138.887 154.365C140.137 156.228 141.921 157.671 144.239 158.694C146.558 159.717 149.308 160.228 152.489 160.228ZM152.489 127.092C154.989 127.092 157.205 126.592 159.137 125.592C161.092 124.592 162.626 123.194 163.739 121.399C164.853 119.603 165.421 117.501 165.444 115.092C165.421 112.728 164.864 110.671 163.773 108.921C162.683 107.149 161.171 105.785 159.239 104.831C157.308 103.853 155.058 103.365 152.489 103.365C149.876 103.365 147.592 103.853 145.637 104.831C143.683 105.785 142.171 107.149 141.103 108.921C140.035 110.671 139.512 112.728 139.535 115.092C139.512 117.501 140.046 119.603 141.137 121.399C142.251 123.194 143.785 124.592 145.739 125.592C147.694 126.592 149.944 127.092 152.489 127.092Z" fill="black"/>
</svg>
