<svg width="256" height="256" viewBox="0 0 256 256" fill="none" xmlns="http://www.w3.org/2000/svg">
<g opacity="0.08">
<path d="M158 32C154.686 32 152 34.6863 152 38C152 41.3137 154.686 44 158 44H190C199.941 44 208 52.0589 208 62V94C208 97.3137 210.686 100 214 100C217.314 100 220 97.3137 220 94V62C220 45.4315 206.569 32 190 32H158Z" fill="black"/>
<path d="M94 220C97.3137 220 100 217.314 100 214C100 210.686 97.3137 208 94 208H62C52.0589 208 44 199.941 44 190L44 158C44 154.686 41.3137 152 38 152C34.6863 152 32 154.686 32 158V190C32 206.569 45.4315 220 62 220H94Z" fill="black"/>
<path d="M38 100C34.6863 100 32 97.3137 32 94V62C32 45.4315 45.4315 32 62 32H94C97.3137 32 100 34.6863 100 38C100 41.3137 97.3137 44 94 44L62 44C52.0589 44 44 52.0589 44 62L44 94C44 97.3137 41.3137 100 38 100Z" fill="black"/>
<path d="M220 158C220 154.686 217.314 152 214 152C210.686 152 208 154.686 208 158V190C208 199.941 199.941 208 190 208H158C154.686 208 152 210.686 152 214C152 217.314 154.686 220 158 220H190C206.569 220 220 206.569 220 190V158Z" fill="black"/>
</g>
<path d="M71.999 152.456V145.501L99.9536 96.9555H108.272L80.999 144.41V144.956H122.454V152.456H71.999ZM104.863 166.774V123.137H112.908V166.774H104.863Z" fill="black"/>
<path d="M158.002 167.728C152.866 167.728 148.491 166.331 144.877 163.535C141.263 160.717 138.502 156.637 136.593 151.296C134.684 145.933 133.729 139.456 133.729 131.865C133.729 124.319 134.684 117.876 136.593 112.535C138.525 107.171 141.297 103.081 144.911 100.262C148.547 97.4214 152.911 96.001 158.002 96.001C163.093 96.001 167.445 97.4214 171.059 100.262C174.695 103.081 177.468 107.171 179.377 112.535C181.309 117.876 182.275 124.319 182.275 131.865C182.275 139.456 181.32 145.933 179.411 151.296C177.502 156.637 174.74 160.717 171.127 163.535C167.513 166.331 163.138 167.728 158.002 167.728ZM158.002 160.228C163.093 160.228 167.047 157.774 169.866 152.865C172.684 147.956 174.093 140.956 174.093 131.865C174.093 125.819 173.445 120.671 172.15 116.421C170.877 112.171 169.036 108.933 166.627 106.706C164.241 104.478 161.366 103.365 158.002 103.365C152.956 103.365 149.013 105.853 146.172 110.831C143.331 115.785 141.911 122.796 141.911 131.865C141.911 137.91 142.547 143.046 143.82 147.274C145.093 151.501 146.922 154.717 149.309 156.921C151.718 159.126 154.615 160.228 158.002 160.228Z" fill="black"/>
</svg>
