<svg width="256" height="256" viewBox="0 0 256 256" fill="none" xmlns="http://www.w3.org/2000/svg">
<path fill-rule="evenodd" clip-rule="evenodd" d="M154 40C154 36.6863 156.686 34 160 34H192C208.569 34 222 47.4315 222 64V96C222 99.3137 219.314 102 216 102C212.686 102 210 99.3137 210 96V64C210 54.0589 201.941 46 192 46H160C156.686 46 154 43.3137 154 40ZM139.314 90.343L166.225 117.255C172.474 123.503 172.474 133.634 166.225 139.882L139.314 166.794C133.065 173.042 122.935 173.042 116.686 166.794L89.7746 139.882C83.5262 133.634 83.5262 123.503 89.7746 117.255L116.686 90.343C122.935 84.0946 133.065 84.0946 139.314 90.343ZM130.828 98.8283C129.266 97.2662 126.734 97.2662 125.172 98.8283L98.2599 125.74C96.6978 127.302 96.6978 129.835 98.2599 131.397L125.172 158.309C126.734 159.871 129.266 159.871 130.828 158.309L157.74 131.397C159.302 129.835 159.302 127.302 157.74 125.74L130.828 98.8283ZM96 222C99.3137 222 102 219.314 102 216C102 212.686 99.3137 210 96 210H64C54.0589 210 46 201.941 46 192L46 160C46 156.686 43.3137 154 40 154C36.6863 154 34 156.686 34 160V192C34 208.569 47.4315 222 64 222H96ZM40 102C36.6863 102 34 99.3137 34 96V64C34 47.4315 47.4315 34 64 34H96C99.3137 34 102 36.6863 102 40C102 43.3137 99.3137 46 96 46L64 46C54.0589 46 46 54.0589 46 64L46 96C46 99.3137 43.3137 102 40 102ZM222 160C222 156.686 219.314 154 216 154C212.686 154 210 156.686 210 160V192C210 201.941 201.941 210 192 210H160C156.686 210 154 212.686 154 216C154 219.314 156.686 222 160 222H192C208.569 222 222 208.569 222 192V160Z" fill="black"/>
</svg>
