<svg width="256" height="256" viewBox="0 0 256 256" fill="none" xmlns="http://www.w3.org/2000/svg">
<g opacity="0.08">
<path d="M158 32C154.686 32 152 34.6863 152 38C152 41.3137 154.686 44 158 44H190C199.941 44 208 52.0589 208 62V94C208 97.3137 210.686 100 214 100C217.314 100 220 97.3137 220 94V62C220 45.4315 206.569 32 190 32H158Z" fill="black"/>
<path d="M94 220C97.3137 220 100 217.314 100 214C100 210.686 97.3137 208 94 208H62C52.0589 208 44 199.941 44 190L44 158C44 154.686 41.3137 152 38 152C34.6863 152 32 154.686 32 158V190C32 206.569 45.4315 220 62 220H94Z" fill="black"/>
<path d="M38 100C34.6863 100 32 97.3137 32 94V62C32 45.4315 45.4315 32 62 32H94C97.3137 32 100 34.6863 100 38C100 41.3137 97.3137 44 94 44L62 44C52.0589 44 44 52.0589 44 62L44 94C44 97.3137 41.3137 100 38 100Z" fill="black"/>
<path d="M220 158C220 154.686 217.314 152 214 152C210.686 152 208 154.686 208 158V190C208 199.941 199.941 208 190 208H158C154.686 208 152 210.686 152 214C152 217.314 154.686 220 158 220H190C206.569 220 220 206.569 220 190V158Z" fill="black"/>
</g>
<path d="M71.9998 149.319H80.5907C80.8407 151.683 81.6475 153.683 83.0111 155.319C84.3975 156.933 86.1929 158.16 88.3975 159.001C90.602 159.819 93.0452 160.228 95.727 160.228C98.6361 160.228 101.25 159.74 103.568 158.762C105.886 157.785 107.727 156.331 109.091 154.399C110.454 152.444 111.136 150.024 111.136 147.137C111.136 144.615 110.545 142.274 109.363 140.115C108.182 137.933 106.284 136.171 103.67 134.831C101.057 133.49 97.5907 132.819 93.2725 132.819H87.6816V126.001L105.136 105.001V104.456H75.4088V96.9555H116.727V103.092L98.0452 125.728V126.274C101.045 126.41 103.841 127.024 106.432 128.115C109.045 129.206 111.318 130.683 113.25 132.546C115.204 134.41 116.727 136.581 117.818 139.058C118.909 141.535 119.454 144.228 119.454 147.137C119.454 151.115 118.432 154.66 116.386 157.774C114.363 160.865 111.557 163.296 107.966 165.069C104.397 166.842 100.272 167.728 95.5907 167.728C91.4543 167.728 87.6475 167.001 84.1702 165.546C80.6929 164.092 77.8634 161.99 75.6816 159.24C73.4998 156.49 72.2725 153.183 71.9998 149.319Z" fill="black"/>
<path d="M133.372 166.774V160.637L156.417 135.41C159.122 132.456 161.349 129.887 163.099 127.706C164.849 125.501 166.145 123.433 166.986 121.501C167.849 119.546 168.281 117.501 168.281 115.365C168.281 112.91 167.69 110.785 166.508 108.99C165.349 107.194 163.758 105.808 161.736 104.831C159.713 103.853 157.44 103.365 154.917 103.365C152.236 103.365 149.895 103.921 147.895 105.035C145.917 106.126 144.383 107.66 143.292 109.637C142.224 111.615 141.69 113.933 141.69 116.592H133.645C133.645 112.501 134.588 108.91 136.474 105.819C138.361 102.728 140.929 100.319 144.179 98.5919C147.451 96.8646 151.122 96.001 155.19 96.001C159.281 96.001 162.906 96.8646 166.065 98.5919C169.224 100.319 171.701 102.649 173.497 105.581C175.292 108.512 176.19 111.774 176.19 115.365C176.19 117.933 175.724 120.444 174.792 122.899C173.883 125.331 172.292 128.046 170.02 131.046C167.77 134.024 164.645 137.66 160.645 141.956L144.963 158.728V159.274H177.417V166.774H133.372Z" fill="black"/>
</svg>
