<svg width="256" height="256" viewBox="0 0 256 256" fill="none" xmlns="http://www.w3.org/2000/svg">
<path d="M133.657 101.657C130.533 98.5327 125.467 98.5327 122.343 101.657L101.088 122.912C97.9641 126.036 97.9641 131.101 101.088 134.225L122.343 155.48C125.467 158.604 130.533 158.604 133.657 155.48L154.912 134.225C158.036 131.101 158.036 126.036 154.912 122.912L133.657 101.657Z" fill="black"/>
<path fill-rule="evenodd" clip-rule="evenodd" d="M32 64C32 46.3269 46.3269 32 64 32H192C209.673 32 224 46.3269 224 64V192C224 209.673 209.673 224 192 224H64C46.3269 224 32 209.673 32 192V64ZM116.686 83.3137C122.935 77.0653 133.065 77.0653 139.314 83.3137L173.255 117.255C179.503 123.503 179.503 133.634 173.255 139.882L139.314 173.823C133.065 180.072 122.935 180.072 116.686 173.823L82.7452 139.882C76.4968 133.634 76.4968 123.503 82.7452 117.255L116.686 83.3137Z" fill="black"/>
</svg>
