<svg width="256" height="256" viewBox="0 0 256 256" fill="none" xmlns="http://www.w3.org/2000/svg">
<g opacity="0.08">
<path d="M158 32C154.686 32 152 34.6863 152 38C152 41.3137 154.686 44 158 44H190C199.941 44 208 52.0589 208 62V94C208 97.3137 210.686 100 214 100C217.314 100 220 97.3137 220 94V62C220 45.4315 206.569 32 190 32H158Z" fill="black"/>
<path d="M94 220C97.3137 220 100 217.314 100 214C100 210.686 97.3137 208 94 208H62C52.0589 208 44 199.941 44 190L44 158C44 154.686 41.3137 152 38 152C34.6863 152 32 154.686 32 158V190C32 206.569 45.4315 220 62 220H94Z" fill="black"/>
<path d="M38 100C34.6863 100 32 97.3137 32 94V62C32 45.4315 45.4315 32 62 32H94C97.3137 32 100 34.6863 100 38C100 41.3137 97.3137 44 94 44L62 44C52.0589 44 44 52.0589 44 62L44 94C44 97.3137 41.3137 100 38 100Z" fill="black"/>
<path d="M220 158C220 154.686 217.314 152 214 152C210.686 152 208 154.686 208 158V190C208 199.941 199.941 208 190 208H158C154.686 208 152 210.686 152 214C152 217.314 154.686 220 158 220H190C206.569 220 220 206.569 220 190V158Z" fill="black"/>
</g>
<path d="M71.999 152.456V145.501L99.9536 96.9555H108.272L80.999 144.41V144.956H122.454V152.456H71.999ZM104.863 166.774V123.137H112.908V166.774H104.863Z" fill="black"/>
<path d="M157.593 167.728C152.911 167.728 148.775 166.899 145.184 165.24C141.616 163.558 138.831 161.251 136.831 158.319C134.831 155.365 133.843 152.001 133.865 148.228C133.843 145.274 134.422 142.546 135.604 140.046C136.786 137.524 138.4 135.421 140.445 133.74C142.513 132.035 144.82 130.956 147.365 130.501V130.092C144.025 129.228 141.366 127.353 139.388 124.467C137.411 121.558 136.434 118.251 136.456 114.546C136.434 111.001 137.331 107.831 139.15 105.035C140.968 102.24 143.468 100.035 146.65 98.4214C149.854 96.8078 153.502 96.001 157.593 96.001C161.638 96.001 165.252 96.8078 168.434 98.4214C171.615 100.035 174.115 102.24 175.934 105.035C177.775 107.831 178.706 111.001 178.729 114.546C178.706 118.251 177.695 121.558 175.695 124.467C173.718 127.353 171.093 129.228 167.82 130.092V130.501C170.343 130.956 172.615 132.035 174.638 133.74C176.661 135.421 178.275 137.524 179.479 140.046C180.684 142.546 181.297 145.274 181.32 148.228C181.297 152.001 180.275 155.365 178.252 158.319C176.252 161.251 173.468 163.558 169.9 165.24C166.354 166.899 162.252 167.728 157.593 167.728ZM157.593 160.228C160.752 160.228 163.479 159.717 165.775 158.694C168.07 157.671 169.843 156.228 171.093 154.365C172.343 152.501 172.979 150.319 173.002 147.819C172.979 145.183 172.297 142.853 170.956 140.831C169.616 138.808 167.786 137.217 165.468 136.058C163.172 134.899 160.547 134.319 157.593 134.319C154.615 134.319 151.956 134.899 149.615 136.058C147.297 137.217 145.468 138.808 144.127 140.831C142.809 142.853 142.161 145.183 142.184 147.819C142.161 150.319 142.763 152.501 143.99 154.365C145.24 156.228 147.025 157.671 149.343 158.694C151.661 159.717 154.411 160.228 157.593 160.228ZM157.593 127.092C160.093 127.092 162.309 126.592 164.24 125.592C166.195 124.592 167.729 123.194 168.843 121.399C169.956 119.603 170.525 117.501 170.547 115.092C170.525 112.728 169.968 110.671 168.877 108.921C167.786 107.149 166.275 105.785 164.343 104.831C162.411 103.853 160.161 103.365 157.593 103.365C154.979 103.365 152.695 103.853 150.74 104.831C148.786 105.785 147.275 107.149 146.206 108.921C145.138 110.671 144.616 112.728 144.638 115.092C144.616 117.501 145.15 119.603 146.24 121.399C147.354 123.194 148.888 124.592 150.843 125.592C152.797 126.592 155.047 127.092 157.593 127.092Z" fill="black"/>
</svg>
