<svg width="256" height="256" viewBox="0 0 256 256" fill="none" xmlns="http://www.w3.org/2000/svg">
<path opacity="0.08" fill-rule="evenodd" clip-rule="evenodd" d="M152 40C152 35.5817 155.582 32 160 32H192C209.673 32 224 46.3269 224 64V96C224 100.418 220.418 104 216 104C211.582 104 208 100.418 208 96V64C208 55.1634 200.837 48 192 48H160C155.582 48 152 44.4183 152 40ZM104 216C104 220.418 100.418 224 96 224H64C46.3269 224 32 209.673 32 192V160C32 155.582 35.5817 152 40 152C44.4183 152 48 155.582 48 160L48 192C48 200.837 55.1634 208 64 208H96C100.418 208 104 211.582 104 216ZM32 96C32 100.418 35.5817 104 40 104C44.4183 104 48 100.418 48 96L48 64C48 55.1634 55.1634 48 64 48L96 48C100.418 48 104 44.4183 104 40C104 35.5817 100.418 32 96 32H64C46.3269 32 32 46.3269 32 64V96ZM216 152C220.418 152 224 155.582 224 160V192C224 209.673 209.673 224 192 224H160C155.582 224 152 220.418 152 216C152 211.582 155.582 208 160 208H192C200.837 208 208 200.837 208 192V160C208 155.582 211.582 152 216 152ZM130.828 98.8284C129.266 97.2663 126.734 97.2663 125.172 98.8284L98.2599 125.74C96.6978 127.302 96.6978 129.835 98.2599 131.397L125.172 158.309C126.734 159.871 129.266 159.871 130.828 158.309L157.74 131.397C159.302 129.835 159.302 127.302 157.74 125.74L130.828 98.8284Z" fill="black"/>
<path fill-rule="evenodd" clip-rule="evenodd" d="M142.142 87.5151L169.053 114.427C176.864 122.237 176.864 134.901 169.053 142.711L142.142 169.623C134.331 177.433 121.668 177.433 113.857 169.623L86.9458 142.711C79.1353 134.901 79.1353 122.237 86.9458 114.427L113.857 87.5151C121.668 79.7046 134.331 79.7046 142.142 87.5151ZM130.828 98.8288C129.266 97.2667 126.733 97.2667 125.171 98.8288L98.2595 125.74C96.6974 127.303 96.6974 129.835 98.2595 131.397L125.171 158.309C126.733 159.871 129.266 159.871 130.828 158.309L157.74 131.397C159.302 129.835 159.302 127.303 157.74 125.74L130.828 98.8288Z" fill="black"/>
</svg>
