<svg width="256" height="256" viewBox="0 0 256 256" fill="none" xmlns="http://www.w3.org/2000/svg">
<g opacity="0.08">
<path d="M158 32C154.686 32 152 34.6863 152 38C152 41.3137 154.686 44 158 44H190C199.941 44 208 52.0589 208 62V94C208 97.3137 210.686 100 214 100C217.314 100 220 97.3137 220 94V62C220 45.4315 206.569 32 190 32H158Z" fill="black"/>
<path d="M94 220C97.3137 220 100 217.314 100 214C100 210.686 97.3137 208 94 208H62C52.0589 208 44 199.941 44 190L44 158C44 154.686 41.3137 152 38 152C34.6863 152 32 154.686 32 158V190C32 206.569 45.4315 220 62 220H94Z" fill="black"/>
<path d="M38 100C34.6863 100 32 97.3137 32 94V62C32 45.4315 45.4315 32 62 32H94C97.3137 32 100 34.6863 100 38C100 41.3137 97.3137 44 94 44L62 44C52.0589 44 44 52.0589 44 62L44 94C44 97.3137 41.3137 100 38 100Z" fill="black"/>
<path d="M220 158C220 154.686 217.314 152 214 152C210.686 152 208 154.686 208 158V190C208 199.941 199.941 208 190 208H158C154.686 208 152 210.686 152 214C152 217.314 154.686 220 158 220H190C206.569 220 220 206.569 220 190V158Z" fill="black"/>
</g>
<path d="M95.7274 167.728C91.0456 167.728 86.9092 166.899 83.3183 165.24C79.7502 163.558 76.9661 161.251 74.9661 158.319C72.9661 155.365 71.9774 152.001 72.0002 148.228C71.9774 145.274 72.557 142.546 73.7388 140.046C74.9206 137.524 76.5342 135.421 78.5797 133.74C80.6479 132.035 82.9547 130.956 85.5002 130.501V130.092C82.1592 129.228 79.5002 127.353 77.5229 124.467C75.5456 121.558 74.5683 118.251 74.5911 114.546C74.5683 111.001 75.4661 107.831 77.2842 105.035C79.1024 102.24 81.6024 100.035 84.7842 98.4214C87.9888 96.8078 91.6365 96.001 95.7274 96.001C99.7729 96.001 103.387 96.8078 106.568 98.4214C109.75 100.035 112.25 102.24 114.068 105.035C115.909 107.831 116.841 111.001 116.864 114.546C116.841 118.251 115.83 121.558 113.83 124.467C111.852 127.353 109.227 129.228 105.955 130.092V130.501C108.477 130.956 110.75 132.035 112.773 133.74C114.796 135.421 116.409 137.524 117.614 140.046C118.818 142.546 119.432 145.274 119.455 148.228C119.432 152.001 118.409 155.365 116.387 158.319C114.387 161.251 111.602 163.558 108.034 165.24C104.489 166.899 100.387 167.728 95.7274 167.728ZM95.7274 160.228C98.8865 160.228 101.614 159.717 103.909 158.694C106.205 157.671 107.977 156.228 109.227 154.365C110.477 152.501 111.114 150.319 111.137 147.819C111.114 145.183 110.432 142.853 109.091 140.831C107.75 138.808 105.921 137.217 103.602 136.058C101.307 134.899 98.682 134.319 95.7274 134.319C92.7502 134.319 90.0911 134.899 87.7502 136.058C85.432 137.217 83.6024 138.808 82.2615 140.831C80.9433 142.853 80.2956 145.183 80.3183 147.819C80.2956 150.319 80.8979 152.501 82.1252 154.365C83.3752 156.228 85.1592 157.671 87.4774 158.694C89.7956 159.717 92.5456 160.228 95.7274 160.228ZM95.7274 127.092C98.2274 127.092 100.443 126.592 102.375 125.592C104.33 124.592 105.864 123.194 106.977 121.399C108.091 119.603 108.659 117.501 108.682 115.092C108.659 112.728 108.102 110.671 107.012 108.921C105.921 107.149 104.409 105.785 102.477 104.831C100.546 103.853 98.2956 103.365 95.7274 103.365C93.1138 103.365 90.8297 103.853 88.8752 104.831C86.9206 105.785 85.4092 107.149 84.3411 108.921C83.2729 110.671 82.7502 112.728 82.7729 115.092C82.7502 117.501 83.2842 119.603 84.3752 121.399C85.4888 123.194 87.0229 124.592 88.9774 125.592C90.932 126.592 93.182 127.092 95.7274 127.092Z" fill="black"/>
<path d="M155.293 167.728C150.156 167.728 145.781 166.331 142.168 163.535C138.554 160.717 135.793 156.637 133.884 151.296C131.975 145.933 131.02 139.456 131.02 131.865C131.02 124.319 131.975 117.876 133.884 112.535C135.816 107.171 138.588 103.081 142.202 100.262C145.838 97.4214 150.202 96.001 155.293 96.001C160.384 96.001 164.736 97.4214 168.35 100.262C171.986 103.081 174.759 107.171 176.668 112.535C178.6 117.876 179.566 124.319 179.566 131.865C179.566 139.456 178.611 145.933 176.702 151.296C174.793 156.637 172.031 160.717 168.418 163.535C164.804 166.331 160.429 167.728 155.293 167.728ZM155.293 160.228C160.384 160.228 164.338 157.774 167.156 152.865C169.975 147.956 171.384 140.956 171.384 131.865C171.384 125.819 170.736 120.671 169.441 116.421C168.168 112.171 166.327 108.933 163.918 106.706C161.531 104.478 158.656 103.365 155.293 103.365C150.247 103.365 146.304 105.853 143.463 110.831C140.622 115.785 139.202 122.796 139.202 131.865C139.202 137.91 139.838 143.046 141.111 147.274C142.384 151.501 144.213 154.717 146.6 156.921C149.009 159.126 151.906 160.228 155.293 160.228Z" fill="black"/>
</svg>
