<svg width="256" height="256" viewBox="0 0 256 256" fill="none" xmlns="http://www.w3.org/2000/svg">
<g opacity="0.08">
<path d="M158 32C154.686 32 152 34.6863 152 38C152 41.3137 154.686 44 158 44H190C199.941 44 208 52.0589 208 62V94C208 97.3137 210.686 100 214 100C217.314 100 220 97.3137 220 94V62C220 45.4315 206.569 32 190 32H158Z" fill="black"/>
<path d="M94 220C97.3137 220 100 217.314 100 214C100 210.686 97.3137 208 94 208H62C52.0589 208 44 199.941 44 190L44 158C44 154.686 41.3137 152 38 152C34.6863 152 32 154.686 32 158V190C32 206.569 45.4315 220 62 220H94Z" fill="black"/>
<path d="M38 100C34.6863 100 32 97.3137 32 94V62C32 45.4315 45.4315 32 62 32H94C97.3137 32 100 34.6863 100 38C100 41.3137 97.3137 44 94 44L62 44C52.0589 44 44 52.0589 44 62L44 94C44 97.3137 41.3137 100 38 100Z" fill="black"/>
<path d="M220 158C220 154.686 217.314 152 214 152C210.686 152 208 154.686 208 158V190C208 199.941 199.941 208 190 208H158C154.686 208 152 210.686 152 214C152 217.314 154.686 220 158 220H190C206.569 220 220 206.569 220 190V158Z" fill="black"/>
</g>
<path d="M72.0007 166.774V160.637L95.0462 135.41C97.7507 132.456 99.978 129.887 101.728 127.706C103.478 125.501 104.773 123.433 105.614 121.501C106.478 119.546 106.91 117.501 106.91 115.365C106.91 112.91 106.319 110.785 105.137 108.99C103.978 107.194 102.387 105.808 100.364 104.831C98.3416 103.853 96.0689 103.365 93.5462 103.365C90.8644 103.365 88.5235 103.921 86.5235 105.035C84.5462 106.126 83.0121 107.66 81.9212 109.637C80.853 111.615 80.3189 113.933 80.3189 116.592H72.2735C72.2735 112.501 73.2166 108.91 75.103 105.819C76.9894 102.728 79.5576 100.319 82.8076 98.5919C86.0803 96.8646 89.7507 96.001 93.8189 96.001C97.9098 96.001 101.535 96.8646 104.694 98.5919C107.853 100.319 110.33 102.649 112.126 105.581C113.921 108.512 114.819 111.774 114.819 115.365C114.819 117.933 114.353 120.444 113.421 122.899C112.512 125.331 110.921 128.046 108.648 131.046C106.398 134.024 103.273 137.66 99.2735 141.956L83.5916 158.728V159.274H116.046V166.774H72.0007Z" fill="black"/>
<path d="M152.898 167.728C147.762 167.728 143.387 166.331 139.773 163.535C136.16 160.717 133.398 156.637 131.489 151.296C129.58 145.933 128.626 139.456 128.626 131.865C128.626 124.319 129.58 117.876 131.489 112.535C133.421 107.171 136.194 103.081 139.808 100.262C143.444 97.4214 147.808 96.001 152.898 96.001C157.989 96.001 162.342 97.4214 165.955 100.262C169.592 103.081 172.364 107.171 174.273 112.535C176.205 117.876 177.171 124.319 177.171 131.865C177.171 139.456 176.217 145.933 174.308 151.296C172.398 156.637 169.637 160.717 166.023 163.535C162.41 166.331 158.035 167.728 152.898 167.728ZM152.898 160.228C157.989 160.228 161.944 157.774 164.762 152.865C167.58 147.956 168.989 140.956 168.989 131.865C168.989 125.819 168.342 120.671 167.046 116.421C165.773 112.171 163.933 108.933 161.523 106.706C159.137 104.478 156.262 103.365 152.898 103.365C147.853 103.365 143.91 105.853 141.069 110.831C138.228 115.785 136.808 122.796 136.808 131.865C136.808 137.91 137.444 143.046 138.717 147.274C139.989 151.501 141.819 154.717 144.205 156.921C146.614 159.126 149.512 160.228 152.898 160.228Z" fill="black"/>
</svg>
