<svg width="256" height="256" viewBox="0 0 256 256" fill="none" xmlns="http://www.w3.org/2000/svg">
<path fill-rule="evenodd" clip-rule="evenodd" d="M148 40C148 33.3726 153.373 28 160 28H192C211.882 28 228 44.1178 228 64V96C228 102.627 222.627 108 216 108C209.373 108 204 102.627 204 96V64C204 57.3726 198.627 52 192 52H160C153.373 52 148 46.6274 148 40ZM147.799 81.8579L174.711 108.77C185.645 119.704 185.645 137.433 174.711 148.368L147.799 175.279C136.864 186.214 119.136 186.214 108.201 175.279L81.2893 148.368C70.3547 137.433 70.3546 119.704 81.2893 108.77L108.201 81.8579C119.136 70.9232 136.864 70.9232 147.799 81.8579ZM130.828 98.8284C129.266 97.2663 126.734 97.2663 125.172 98.8284L98.2599 125.74C96.6978 127.302 96.6978 129.835 98.2599 131.397L125.172 158.309C126.734 159.871 129.266 159.871 130.828 158.309L157.74 131.397C159.302 129.835 159.302 127.302 157.74 125.74L130.828 98.8284ZM96 228C102.627 228 108 222.627 108 216C108 209.373 102.627 204 96 204H64C57.3726 204 52 198.627 52 192L52 160C52 153.373 46.6274 148 40 148C33.3726 148 28 153.373 28 160V192C28 211.882 44.1177 228 64 228H96ZM40 108C33.3726 108 28 102.627 28 96V64C28 44.1177 44.1178 28 64 28H96C102.627 28 108 33.3726 108 40C108 46.6274 102.627 52 96 52H64C57.3726 52 52 57.3726 52 64L52 96C52 102.627 46.6274 108 40 108ZM228 160C228 153.373 222.627 148 216 148C209.373 148 204 153.373 204 160V192C204 198.627 198.627 204 192 204H160C153.373 204 148 209.373 148 216C148 222.627 153.373 228 160 228H192C211.882 228 228 211.882 228 192V160Z" fill="black"/>
</svg>
