<svg width="256" height="256" viewBox="0 0 256 256" fill="none" xmlns="http://www.w3.org/2000/svg">
<g opacity="0.08">
<path d="M158 32C154.686 32 152 34.6863 152 38C152 41.3137 154.686 44 158 44H190C199.941 44 208 52.0589 208 62V94C208 97.3137 210.686 100 214 100C217.314 100 220 97.3137 220 94V62C220 45.4315 206.569 32 190 32H158Z" fill="black"/>
<path d="M94 220C97.3137 220 100 217.314 100 214C100 210.686 97.3137 208 94 208H62C52.0589 208 44 199.941 44 190L44 158C44 154.686 41.3137 152 38 152C34.6863 152 32 154.686 32 158V190C32 206.569 45.4315 220 62 220H94Z" fill="black"/>
<path d="M38 100C34.6863 100 32 97.3137 32 94V62C32 45.4315 45.4315 32 62 32H94C97.3137 32 100 34.6863 100 38C100 41.3137 97.3137 44 94 44L62 44C52.0589 44 44 52.0589 44 62L44 94C44 97.3137 41.3137 100 38 100Z" fill="black"/>
<path d="M220 158C220 154.686 217.314 152 214 152C210.686 152 208 154.686 208 158V190C208 199.941 199.941 208 190 208H158C154.686 208 152 210.686 152 214C152 217.314 154.686 220 158 220H190C206.569 220 220 206.569 220 190V158Z" fill="black"/>
</g>
<path d="M111.728 96V165.818H103.273V108.273H102.728C102.409 108.909 101.591 109.636 100.273 110.455C98.9548 111.25 97.2502 111.955 95.1593 112.568C93.0684 113.159 90.6821 113.455 88.0002 113.455V106.364C90.7048 106.364 93.0457 105.875 95.023 104.898C97.0002 103.92 98.648 102.773 99.9662 101.455C101.307 100.136 102.318 98.9432 103 97.875C103.705 96.8068 104.114 96.1818 104.228 96H111.728Z" fill="black"/>
<path d="M130.103 143.727C130.148 141.545 130.478 139.284 131.091 136.943C131.705 134.602 132.739 132 134.193 129.136C135.648 126.273 137.648 122.955 140.193 119.182L155.875 96H165.148L146.739 122.864C147.557 122.591 148.398 122.364 149.262 122.182C150.148 122 151.034 121.909 151.921 121.909C156.148 121.909 159.921 122.886 163.239 124.841C166.58 126.795 169.205 129.466 171.114 132.852C173.046 136.239 174.012 140.091 174.012 144.409C174.012 148.727 173.057 152.568 171.148 155.932C169.262 159.295 166.659 161.943 163.341 163.875C160.046 165.807 156.284 166.773 152.057 166.773C147.784 166.773 143.989 165.784 140.671 163.807C137.353 161.807 134.75 159.08 132.864 155.625C130.978 152.148 130.057 148.182 130.103 143.727ZM138.148 144.273C138.148 147.227 138.739 149.841 139.921 152.114C141.103 154.386 142.739 156.17 144.83 157.466C146.921 158.761 149.33 159.409 152.057 159.409C154.784 159.409 157.193 158.773 159.284 157.5C161.375 156.205 163.012 154.432 164.193 152.182C165.375 149.909 165.966 147.318 165.966 144.409C165.966 141.455 165.375 138.852 164.193 136.602C163.012 134.352 161.375 132.591 159.284 131.318C157.193 130.045 154.784 129.409 152.057 129.409C149.33 129.409 146.921 130.045 144.83 131.318C142.739 132.568 141.103 134.318 139.921 136.568C138.739 138.795 138.148 141.364 138.148 144.273Z" fill="black"/>
</svg>
