<svg width="256" height="256" viewBox="0 0 256 256" fill="none" xmlns="http://www.w3.org/2000/svg">
<path fill-rule="evenodd" clip-rule="evenodd" d="M156 40C156 37.7909 157.791 36 160 36H192C207.464 36 220 48.536 220 64V96C220 98.2091 218.209 100 216 100C213.791 100 212 98.2091 212 96V64C212 52.9543 203.046 44 192 44H160C157.791 44 156 42.2091 156 40ZM136.485 93.1708L163.397 120.083C168.083 124.769 168.083 132.367 163.397 137.053L136.485 163.965C131.799 168.651 124.201 168.651 119.515 163.965L92.603 137.053C87.9167 132.367 87.9167 124.769 92.603 120.083L119.515 93.1708C124.201 88.4846 131.799 88.4845 136.485 93.1708ZM130.828 98.8277C129.266 97.2656 126.734 97.2656 125.172 98.8277L98.2599 125.739C96.6978 127.301 96.6978 129.834 98.2599 131.396L125.172 158.308C126.734 159.87 129.266 159.87 130.828 158.308L157.74 131.396C159.302 129.834 159.302 127.301 157.74 125.739L130.828 98.8277ZM96 220C98.2091 220 100 218.209 100 216C100 213.791 98.2091 212 96 212H64C52.9543 212 44 203.046 44 192L44 160C44 157.791 42.2091 156 40 156C37.7909 156 36 157.791 36 160V192C36 207.464 48.536 220 64 220H96ZM40 100C37.7909 100 36 98.2091 36 96V64C36 48.536 48.536 36 64 36H96C98.2091 36 100 37.7909 100 40C100 42.2091 98.2091 44 96 44L64 44C52.9543 44 44 52.9543 44 64L44 96C44 98.2091 42.2091 100 40 100ZM220 160C220 157.791 218.209 156 216 156C213.791 156 212 157.791 212 160V192C212 203.046 203.046 212 192 212H160C157.791 212 156 213.791 156 216C156 218.209 157.791 220 160 220H192C207.464 220 220 207.464 220 192V160Z" fill="black"/>
</svg>
