<svg width="256" height="256" viewBox="0 0 256 256" fill="none" xmlns="http://www.w3.org/2000/svg">
<path d="M48 40C48 31.1634 55.1634 24 64 24H160L208 72V216C208 224.837 200.837 232 192 232H64C55.1634 232 48 224.837 48 216V40Z" fill="url(#paint0_linear_7159_6038)"/>
<path d="M208 72L160 24V56C160 64.8366 167.163 72 176 72H208Z" fill="#DCCFE8"/>
<path fill-rule="evenodd" clip-rule="evenodd" d="M76 104C73.7909 104 72 105.791 72 108C72 110.209 73.7909 112 76 112H180C182.209 112 184 110.209 184 108C184 105.791 182.209 104 180 104H76ZM76 128C73.7909 128 72 129.791 72 132C72 134.209 73.7909 136 76 136H180C182.209 136 184 134.209 184 132C184 129.791 182.209 128 180 128H76ZM72 156C72 153.791 73.7909 152 76 152H180C182.209 152 184 153.791 184 156C184 158.209 182.209 160 180 160H76C73.7909 160 72 158.209 72 156ZM76 176C73.7909 176 72 177.791 72 180C72 182.209 73.7909 184 76 184H180C182.209 184 184 182.209 184 180C184 177.791 182.209 176 180 176H76Z" fill="#A1A2CD"/>
<path d="M198.794 101.657C201.919 98.5327 206.984 98.5327 210.108 101.657L232.735 124.284C235.86 127.408 235.86 132.474 232.735 135.598L130.912 237.421L96.9709 203.48L198.794 101.657Z" fill="url(#paint1_linear_7159_6038)"/>
<path d="M96.9709 237.422V203.48L130.912 237.422H96.9709Z" fill="url(#paint2_linear_7159_6038)"/>
<path d="M96.9709 237.421V226.107L108.285 237.421H96.9709Z" fill="#1C1C1C"/>
<rect x="187.481" y="112.971" width="48" height="24" transform="rotate(45 187.481 112.971)" fill="url(#paint3_linear_7159_6038)"/>
<defs>
<linearGradient id="paint0_linear_7159_6038" x1="128" y1="24" x2="128" y2="248" gradientUnits="userSpaceOnUse">
<stop stop-color="#F1ECF7"/>
<stop offset="1" stop-color="#E8DEF2"/>
</linearGradient>
<linearGradient id="paint1_linear_7159_6038" x1="221.422" y1="112.971" x2="113.942" y2="220.451" gradientUnits="userSpaceOnUse">
<stop stop-color="#FF6659"/>
<stop offset="1" stop-color="#FF8749"/>
</linearGradient>
<linearGradient id="paint2_linear_7159_6038" x1="113.942" y1="220.451" x2="96.9709" y2="237.422" gradientUnits="userSpaceOnUse">
<stop stop-color="#FFBA9F"/>
<stop offset="1" stop-color="#DE8893"/>
</linearGradient>
<linearGradient id="paint3_linear_7159_6038" x1="189.99" y1="120.402" x2="246.559" y2="120.402" gradientUnits="userSpaceOnUse">
<stop stop-color="#E3DBEF"/>
<stop offset="0.807292" stop-color="#F6F1FE"/>
<stop offset="1" stop-color="#EADEFC"/>
</linearGradient>
</defs>
</svg>
