<svg width="256" height="256" viewBox="0 0 256 256" fill="none" xmlns="http://www.w3.org/2000/svg">
<path d="M224 28C224 21.3726 229.373 16 236 16H244C250.627 16 256 21.3726 256 28V68C256 74.6274 250.627 80 244 80H236C229.373 80 224 74.6274 224 68V28Z" fill="#AE4BD5"/>
<path d="M224 108C224 101.373 229.373 96 236 96H244C250.627 96 256 101.373 256 108V148C256 154.627 250.627 160 244 160H236C229.373 160 224 154.627 224 148V108Z" fill="#9332BF"/>
<path d="M224 188C224 181.373 229.373 176 236 176H244C250.627 176 256 181.373 256 188V228C256 234.627 250.627 240 244 240H236C229.373 240 224 234.627 224 228V188Z" fill="#7719AA"/>
<path fill-rule="evenodd" clip-rule="evenodd" d="M60 233.651V22.3492C60 10.0061 69.8497 0 82 0H214C226.15 0 236 10.0061 236 22.3492V233.651C236 245.994 226.15 256 214 256H82C69.8497 256 60 245.994 60 233.651ZM74 22.3492V233.651C74 238.139 77.5817 241.778 82 241.778H214C218.418 241.778 222 238.139 222 233.651V22.3492C222 17.8608 218.418 14.2222 214 14.2222H82C77.5817 14.2222 74 17.8608 74 22.3492Z" fill="#9D9C9B"/>
<path d="M0 74C0 67.3726 5.37258 62 12 62H132C138.627 62 144 67.3726 144 74V194C144 200.627 138.627 206 132 206H12C5.37258 206 0 200.627 0 194V74Z" fill="#7719AA"/>
<path d="M32 172V96H46L98 148V96H112V172H98L46 120V172H32Z" fill="white"/>
</svg>
