<svg width="256" height="256" viewBox="0 0 256 256" fill="none" xmlns="http://www.w3.org/2000/svg">
<path d="M52.8153 166.363L52.7791 166.409L52.744 166.456C50.7881 169.047 46.4068 169.809 42.9806 167.544C40.2379 165.732 39.4135 161.692 41.7491 158.5C45.2339 154.343 47.7649 149.483 49.4272 144.732C51.1579 139.787 51.9628 134.167 51.9316 128.654C51.9004 123.142 51.0318 117.531 49.2453 112.602C47.5292 107.869 44.9434 103.034 41.4117 98.9126C39.04 95.7438 39.8186 91.6965 42.5406 89.8565C45.941 87.5578 50.3306 88.2755 52.3158 90.8473L52.3514 90.8934L52.3882 90.9388C56.7839 96.3632 60.3893 102.39 62.5438 108.303C64.8116 115.259 66.2561 121.987 66.2934 128.583C66.3327 135.523 65.6239 142.092 62.9022 148.559C59.938 155.601 57.0677 160.998 52.8153 166.363Z" fill="black"/>
<path d="M84.5986 179.244L84.6845 179.131L84.7634 179.012C94.5068 164.404 100.127 146.777 100.023 128.414C99.919 110.055 94.1024 92.4891 84.1986 77.9815C82.0524 74.7964 83.0166 71.0304 86.6345 68.5848C89.0642 66.9423 93.6256 67.5237 96.3319 70.9178C107.514 87.5201 114.267 107.59 114.385 128.342C114.506 149.802 107.985 169.221 96.9822 185.945C94.4369 189.223 90.5402 190.142 87.1802 188.284C83.5375 185.786 82.8717 181.532 84.5986 179.244Z" fill="black"/>
<path d="M141.637 49.0942L141.733 49.2716L141.844 49.4411C156.996 72.5581 165.415 99.223 165.579 128.085C165.742 156.935 157.633 183.671 142.757 206.931C140.476 210.362 136.626 211.33 132.723 209.63C129.171 207.463 128.216 203.873 130.072 200.247C142.723 179.222 150.59 154.447 150.441 128.161C150.293 101.993 142.982 77.2575 129.23 56.2319C127.369 52.6418 128.29 49.0662 131.801 46.8748C136.036 44.9814 140.162 46.369 141.637 49.0942Z" fill="black"/>
<path d="M186.502 27.0928L186.568 27.214L186.641 27.3316C205.001 57.0326 215.788 90.9898 215.997 127.833C216.205 164.638 205.825 198.669 187.836 228.53C185.552 231.922 181.719 232.873 177.835 231.181C174.293 229.021 173.334 225.447 175.166 221.832C192.496 194.154 201.829 162.089 201.635 127.905C201.441 93.6329 190.924 61.6919 174.125 34.2883C172.02 30.2879 173.504 26.3699 176.442 24.9766C180.755 22.9316 185.001 24.3196 186.502 27.0928Z" fill="black"/>
</svg>
