<svg width="256" height="256" viewBox="0 0 256 256" fill="none" xmlns="http://www.w3.org/2000/svg">
<path fill-rule="evenodd" clip-rule="evenodd" d="M64 22.3492V233.651C64 245.994 73.8497 256 86 256H234C246.15 256 256 245.994 256 233.651V58.8101C256 52.8402 253.649 47.1183 249.471 42.9202L213.183 6.4593C209.064 2.32104 203.505 0 197.712 0H86C73.8497 0 64 10.0061 64 22.3492ZM78 233.651V22.3492C78 17.8608 81.5817 14.2222 86 14.2222H195V62.9841C195 71.3999 201.716 78.2222 210 78.2222H242V233.651C242 238.139 238.418 241.778 234 241.778H86C81.5817 241.778 78 238.139 78 233.651ZM242 64V58.8101C242 56.6392 241.145 54.5586 239.626 53.032L209 22.2604V62.9841C209 63.5452 209.448 64 210 64H242Z" fill="#9D9C9B"/>
<path d="M160 192C192 192 208 176 208 144H176V112H160V144V192Z" fill="#E48762"/>
<path d="M192 128V96C204 96 224 116 224 128H192Z" fill="#F9D4C4"/>
<path d="M0 74C0 67.3726 5.37258 62 12 62H132C138.627 62 144 67.3726 144 74V194C144 200.627 138.627 206 132 206H12C5.37258 206 0 200.627 0 194V74Z" fill="#C25B33"/>
<path d="M48 172.172V92H69.3281C77.276 92 82.4714 92.3828 84.9141 93.1484C88.8151 94.388 92.0234 97.0312 94.5391 101.078C97.0911 105.125 98.3672 110.339 98.3672 116.719C98.3672 122.516 97.2734 127.383 95.0859 131.32C92.8984 135.221 90.1641 137.974 86.8828 139.578C83.6016 141.146 77.9505 141.93 69.9297 141.93H61.2344V172.172H48ZM61.2344 105.562V128.312H68.5625C73.4844 128.312 76.8203 127.966 78.5703 127.273C80.3568 126.581 81.8151 125.341 82.9453 123.555C84.0755 121.732 84.6406 119.508 84.6406 116.883C84.6406 114.221 84.0573 111.979 82.8906 110.156C81.724 108.333 80.2839 107.112 78.5703 106.492C76.8568 105.872 73.2292 105.562 67.6875 105.562H61.2344Z" fill="white"/>
</svg>
