<svg width="256" height="256" viewBox="0 0 256 256" fill="none" xmlns="http://www.w3.org/2000/svg">
<path d="M234.5 114.38L189.4 153.74L202.91 212.34C203.625 215.403 203.421 218.61 202.323 221.558C201.226 224.506 199.284 227.065 196.74 228.915C194.196 230.766 191.163 231.825 188.02 231.961C184.877 232.097 181.764 231.304 179.07 229.68L127.96 198.68L76.9599 229.68C74.2656 231.304 71.1525 232.097 68.0097 231.961C64.8669 231.825 61.8339 230.766 59.2899 228.915C56.7459 227.065 54.8038 224.506 53.7064 221.558C52.609 218.61 52.405 215.403 53.1199 212.34L66.6099 153.8L21.4999 114.38C19.114 112.322 17.3888 109.606 16.5405 106.571C15.6922 103.537 15.7587 100.32 16.7316 97.323C17.7046 94.3263 19.5406 91.6835 22.0095 89.7261C24.4784 87.7687 27.4703 86.5838 30.6099 86.32L90.0699 81.17L113.28 25.81C114.492 22.9051 116.536 20.4238 119.156 18.6785C121.775 16.9332 124.852 16.002 128 16.002C131.147 16.002 134.225 16.9332 136.844 18.6785C139.463 20.4238 141.508 22.9051 142.72 25.81L166 81.17L225.44 86.32C228.58 86.5838 231.571 87.7687 234.04 89.7261C236.509 91.6835 238.345 94.3263 239.318 97.323C240.291 100.32 240.358 103.537 239.509 106.571C238.661 109.606 236.936 112.322 234.55 114.38H234.5Z" fill="black"/>
<path d="M103.996 150.545H112.587C112.837 152.909 113.643 154.909 115.007 156.545C116.393 158.159 118.189 159.386 120.393 160.227C122.598 161.045 125.041 161.454 127.723 161.454C130.632 161.454 133.246 160.966 135.564 159.988C137.882 159.011 139.723 157.557 141.087 155.625C142.45 153.67 143.132 151.25 143.132 148.363C143.132 145.841 142.541 143.5 141.359 141.341C140.177 139.159 138.28 137.398 135.666 136.057C133.052 134.716 129.587 134.045 125.268 134.045H119.677V127.227L137.132 106.227V105.682H107.405V98.1816H148.723V104.318L130.041 126.954V127.5C133.041 127.636 135.837 128.25 138.427 129.341C141.041 130.432 143.314 131.909 145.246 133.773C147.2 135.636 148.723 137.807 149.814 140.284C150.905 142.761 151.45 145.454 151.45 148.363C151.45 152.341 150.427 155.886 148.382 159C146.359 162.091 143.552 164.523 139.962 166.295C136.393 168.068 132.268 168.954 127.587 168.954C123.45 168.954 119.643 168.227 116.166 166.773C112.689 165.318 109.859 163.216 107.677 160.466C105.496 157.716 104.268 154.409 103.996 150.545Z" fill="white"/>
</svg>
