<svg width="256" height="256" viewBox="0 0 256 256" fill="none" xmlns="http://www.w3.org/2000/svg">
<path d="M82.2891 54.7427C86.7048 54.7445 90.2874 58.3892 90.2891 62.8832C90.2891 67.3788 86.7058 71.0298 82.2891 71.0316H80C57.91 71.032 40.0018 89.253 40 111.734V144.305C40 166.788 57.9089 185.015 80 185.015H108.688L100.688 176.875C97.5657 173.695 97.5641 168.538 100.688 165.359C103.811 162.18 108.876 162.182 112 165.359L133.656 187.398C136.78 190.578 136.78 195.734 133.656 198.914L111.312 221.617C108.188 224.794 103.123 224.795 100 221.617C96.8787 218.438 96.8797 213.288 100 210.109L108.688 201.296H80C49.0723 201.296 24 175.781 24 144.305V111.734C24.0018 80.2597 49.0734 54.743 80 54.7427H82.2891ZM144.688 34.3835C147.812 31.2063 152.877 31.2047 156 34.3835C159.123 37.5623 159.122 42.7192 156 45.899L147.312 54.7036H176C206.927 54.704 231.999 80.2204 232 111.695V144.265C232 175.742 206.928 201.257 176 201.257H173.711C169.294 201.255 165.711 197.612 165.711 193.117C165.711 188.621 169.294 184.978 173.711 184.976H176C198.091 184.976 216 166.748 216 144.265V111.695C215.999 89.2137 198.09 70.9929 176 70.9926H147.312L155.312 79.1331C158.433 82.3124 158.434 87.4622 155.312 90.6409C152.189 93.8197 147.124 93.8181 144 90.6409L122.344 68.602C119.221 65.4229 119.221 60.2738 122.344 57.0942L144.688 34.3835Z" fill="black"/>
</svg>
