<svg width="256" height="256" viewBox="0 0 256 256" fill="none" xmlns="http://www.w3.org/2000/svg">
<path opacity="0.2" d="M176 208C173.878 208 171.844 207.157 170.343 205.657C168.843 204.156 168 202.122 168 200V56C168 53.8779 168.843 51.8438 170.343 50.3428C171.844 48.8428 173.878 48 176 48H224V208H176Z" fill="black"/>
<path d="M160 48V208C160 212.418 163.582 216 168 216C172.418 216 176 212.418 176 208V48C176 43.5817 172.418 40 168 40C163.582 40 160 43.5817 160 48Z" fill="black"/>
<path fill-rule="evenodd" clip-rule="evenodd" d="M24 56C24 56 24 49.3726 28.6863 44.6863C28.6863 44.6863 33.3726 40 40 40H216C216 40 222.627 40 227.314 44.6863C227.314 44.6863 232 49.3726 232 56V200C232 200 232 206.627 227.314 211.314C227.314 211.314 222.627 216 216 216H40C40 216 33.3726 216 28.6863 211.314C28.6863 211.314 24 206.627 24 200V56ZM40 56V200H216V56H40Z" fill="black"/>
<path d="M200 88H224C228.418 88 232 84.4183 232 80C232 75.5817 228.418 72 224 72H200C195.582 72 192 75.5817 192 80C192 84.4183 195.582 88 200 88Z" fill="black"/>
<path d="M200 120H224C228.418 120 232 116.418 232 112C232 107.582 228.418 104 224 104H200C195.582 104 192 107.582 192 112C192 116.418 195.582 120 200 120Z" fill="black"/>
<path d="M200 152H224C228.418 152 232 148.418 232 144C232 139.582 228.418 136 224 136H200C195.582 136 192 139.582 192 144C192 148.418 195.582 152 200 152Z" fill="black"/>
</svg>
