<svg width="256" height="256" viewBox="0 0 256 256" fill="none" xmlns="http://www.w3.org/2000/svg">
<path opacity="0.08" d="M200 128C200 167.765 167.765 200 128 200C88.2355 200 56 167.765 56 128C56 88.2355 88.2355 56 128 56C167.765 56 200 88.2355 200 128Z" fill="black"/>
<path fill-rule="evenodd" clip-rule="evenodd" d="M128 192C163.346 192 192 163.346 192 128C192 92.6538 163.346 64 128 64C92.6538 64 64 92.6538 64 128C64 163.346 92.6538 192 128 192ZM128 200C167.765 200 200 167.765 200 128C200 88.2355 167.765 56 128 56C88.2355 56 56 88.2355 56 128C56 167.765 88.2355 200 128 200Z" fill="black"/>
</svg>
