<svg width="256" height="256" viewBox="0 0 256 256" fill="none" xmlns="http://www.w3.org/2000/svg">
<path d="M224.569 115.2C224.569 161.15 187.319 198.399 141.37 198.399C95.4197 198.399 58.1699 161.15 58.1699 115.2C58.1699 69.2498 95.4197 32 141.37 32C187.319 32 224.569 69.2498 224.569 115.2Z" fill="url(#paint0_radial_7159_6037)"/>
<path fill-rule="evenodd" clip-rule="evenodd" d="M141.37 186.399C180.692 186.399 212.569 154.522 212.569 115.2C212.569 75.8772 180.692 44 141.37 44C102.047 44 70.1699 75.8772 70.1699 115.2C70.1699 154.522 102.047 186.399 141.37 186.399ZM141.37 198.399C187.319 198.399 224.569 161.15 224.569 115.2C224.569 69.2498 187.319 32 141.37 32C95.4197 32 58.1699 69.2498 58.1699 115.2C58.1699 161.15 95.4197 198.399 141.37 198.399Z" fill="black"/>
<g filter="url(#filter0_f_7159_6037)">
<ellipse cx="178.987" cy="82.4162" rx="16" ry="12" transform="rotate(45 178.987 82.4162)" fill="url(#paint1_linear_7159_6037)"/>
</g>
<path d="M92.5363 167.339C101.909 176.712 101.909 191.908 92.5363 201.28L66.9112 226.905C57.5386 236.278 42.3426 236.278 32.9701 226.905V226.905C23.5975 217.533 23.5975 202.337 32.9701 192.964L58.5951 167.339C67.9677 157.966 83.1637 157.966 92.5363 167.339V167.339Z" fill="url(#paint2_linear_7159_6037)"/>
<path fill-rule="evenodd" clip-rule="evenodd" d="M58.4259 218.42L84.051 192.795C88.7373 188.109 88.7373 180.511 84.051 175.824C79.3647 171.138 71.7667 171.138 67.0804 175.824L41.4553 201.449C36.769 206.136 36.769 213.734 41.4553 218.42C46.1416 223.106 53.7396 223.106 58.4259 218.42ZM92.5363 201.28C101.909 191.908 101.909 176.712 92.5363 167.339C83.1637 157.966 67.9677 157.966 58.5951 167.339L32.9701 192.964C23.5975 202.337 23.5975 217.533 32.9701 226.905C42.3426 236.278 57.5386 236.278 66.9112 226.905L92.5363 201.28Z" fill="black"/>
<defs>
<filter id="filter0_f_7159_6037" x="163.844" y="67.2734" width="30.2856" height="30.2861" filterUnits="userSpaceOnUse" color-interpolation-filters="sRGB">
<feFlood flood-opacity="0" result="BackgroundImageFix"/>
<feBlend mode="normal" in="SourceGraphic" in2="BackgroundImageFix" result="shape"/>
<feGaussianBlur stdDeviation="0.5" result="effect1_foregroundBlur_7159_6037"/>
</filter>
<radialGradient id="paint0_radial_7159_6037" cx="0" cy="0" r="1" gradientUnits="userSpaceOnUse" gradientTransform="translate(141.37 115.2) rotate(90) scale(83.1997)">
<stop offset="0.583333" stop-color="#83D0FC"/>
<stop offset="1" stop-color="#D6F0FF"/>
</radialGradient>
<linearGradient id="paint1_linear_7159_6037" x1="178.987" y1="70.4162" x2="178.987" y2="94.4162" gradientUnits="userSpaceOnUse">
<stop stop-color="white"/>
<stop offset="1" stop-color="white" stop-opacity="0"/>
</linearGradient>
<linearGradient id="paint2_linear_7159_6037" x1="79.7237" y1="214.093" x2="45.7826" y2="180.152" gradientUnits="userSpaceOnUse">
<stop offset="0.598958" stop-color="#B5B7F9"/>
<stop offset="1" stop-color="#EBEBFF"/>
</linearGradient>
</defs>
</svg>
