<svg width="256" height="256" viewBox="0 0 256 256" fill="none" xmlns="http://www.w3.org/2000/svg">
<path d="M229.6 229.7C228.107 231.17 226.096 231.996 224 232C221.876 231.991 219.836 231.167 218.3 229.7L175.1 186.4C156.906 201.682 133.514 209.35 109.804 207.804C86.0938 206.259 63.8953 195.62 47.8386 178.106C31.7818 160.592 23.1064 137.555 23.6218 113.8C24.1372 90.0447 33.8036 67.4057 50.6049 50.6044C67.4062 33.8031 90.0452 24.1367 113.8 23.6213C137.555 23.1059 160.592 31.7813 178.106 47.8381C195.621 63.8949 206.26 86.0933 207.805 109.804C209.35 133.514 201.682 156.905 186.4 175.1L229.6 218.3C230.356 219.044 230.956 219.931 231.366 220.91C231.776 221.888 231.987 222.939 231.987 224C231.987 225.061 231.776 226.111 231.366 227.089C230.956 228.068 230.356 228.955 229.6 229.7ZM116 192C131.031 192 145.725 187.542 158.223 179.191C170.722 170.84 180.463 158.971 186.215 145.084C191.967 131.196 193.472 115.915 190.54 101.173C187.607 86.4302 180.369 72.8883 169.74 62.2595C159.111 51.6307 145.569 44.3924 130.827 41.4599C116.084 38.5274 100.803 40.0325 86.9161 45.7848C73.029 51.537 61.1594 61.2781 52.8084 73.7763C44.4574 86.2744 40.0001 100.968 40.0001 116C40.0265 136.148 48.0422 155.463 62.2892 169.71C76.5362 183.958 95.8518 191.973 116 192Z" fill="black"/>
</svg>
