<svg width="256" height="256" viewBox="0 0 256 256" fill="none" xmlns="http://www.w3.org/2000/svg">
<path d="M206.4 94.4004C224.957 94.4004 240 109.444 240 128C240 146.557 224.957 161.6 206.4 161.6L49.6 161.6C31.0432 161.6 16 146.557 16 128C16 109.444 31.0432 94.4004 49.6 94.4004L206.4 94.4004Z" fill="black"/>
<path d="M94.4004 49.6C94.4004 31.0432 109.444 16 128 16C146.557 16 161.6 31.0432 161.6 49.6V206.4C161.6 224.957 146.557 240 128 240C109.444 240 94.4004 224.957 94.4004 206.4V49.6Z" fill="black"/>
<path d="M94.4004 49.6C94.4004 31.0432 109.444 16 128 16C146.557 16 161.6 31.0432 161.6 49.6V206.4C161.6 224.957 146.557 240 128 240C109.444 240 94.4004 224.957 94.4004 206.4V49.6Z" fill="white" fill-opacity="0.4"/>
<path d="M207.201 159.682C220.323 172.804 220.323 194.079 207.201 207.201C194.079 220.323 172.804 220.323 159.682 207.201L48.8044 96.3235C35.6824 83.2015 35.6824 61.9264 48.8044 48.8044C61.9265 35.6824 83.2015 35.6824 96.3235 48.8044L207.201 159.682Z" fill="black"/>
<path d="M207.201 159.682C220.323 172.804 220.323 194.079 207.201 207.201C194.079 220.323 172.804 220.323 159.682 207.201L48.8044 96.3235C35.6824 83.2015 35.6824 61.9264 48.8044 48.8044C61.9265 35.6824 83.2015 35.6824 96.3235 48.8044L207.201 159.682Z" fill="white" fill-opacity="0.2"/>
<path d="M159.682 48.8044C172.804 35.6824 194.079 35.6824 207.201 48.8044C220.323 61.9265 220.323 83.2015 207.201 96.3235L96.3235 207.201C83.2015 220.323 61.9264 220.323 48.8044 207.201C35.6824 194.079 35.6824 172.804 48.8044 159.682L159.682 48.8044Z" fill="black"/>
<path d="M159.682 48.8044C172.804 35.6824 194.079 35.6824 207.201 48.8044C220.323 61.9265 220.323 83.2015 207.201 96.3235L96.3235 207.201C83.2015 220.323 61.9264 220.323 48.8044 207.201C35.6824 194.079 35.6824 172.804 48.8044 159.682L159.682 48.8044Z" fill="white" fill-opacity="0.3"/>
<path fill-rule="evenodd" clip-rule="evenodd" d="M128 49.5996C125.525 49.5996 123.52 51.6054 123.52 54.0796V112.858C123.52 114.215 123.52 114.893 123.251 115.207C123.018 115.48 122.669 115.625 122.312 115.597C121.9 115.564 121.42 115.084 120.46 114.125L78.8982 72.5625C77.1486 70.8129 74.312 70.8129 72.5625 72.5625C70.8129 74.312 70.8129 77.1486 72.5625 78.8981L114.125 120.46C115.084 121.42 115.564 121.9 115.597 122.312C115.625 122.669 115.48 123.018 115.207 123.251C114.893 123.52 114.215 123.52 112.858 123.52H54.0796C51.6054 123.52 49.5996 125.525 49.5996 128C49.5996 130.474 51.6054 132.48 54.0796 132.48H112.858C114.215 132.48 114.893 132.48 115.207 132.748C115.48 132.981 115.625 133.33 115.597 133.687C115.564 134.099 115.084 134.579 114.125 135.539L72.5625 177.101C70.8129 178.851 70.8129 181.687 72.5625 183.437C74.312 185.186 77.1486 185.186 78.8981 183.437L120.46 141.874C121.42 140.915 121.9 140.435 122.312 140.403C122.669 140.375 123.018 140.519 123.251 140.792C123.52 141.106 123.52 141.785 123.52 143.142V201.92C123.52 204.394 125.525 206.4 128 206.4C130.474 206.4 132.48 204.394 132.48 201.92V143.142C132.48 141.785 132.48 141.106 132.748 140.792C132.981 140.519 133.33 140.375 133.687 140.403C134.099 140.435 134.579 140.915 135.539 141.874L177.101 183.437C178.851 185.186 181.687 185.186 183.437 183.437C185.186 181.687 185.186 178.851 183.437 177.101L141.874 135.539C140.915 134.579 140.435 134.099 140.403 133.687C140.375 133.33 140.519 132.981 140.792 132.748C141.106 132.48 141.785 132.48 143.142 132.48H201.92C204.394 132.48 206.4 130.474 206.4 128C206.4 125.525 204.394 123.52 201.92 123.52H143.142C141.785 123.52 141.106 123.52 140.792 123.251C140.519 123.018 140.375 122.669 140.403 122.312C140.435 121.9 140.915 121.42 141.874 120.46L183.437 78.8981C185.186 77.1486 185.186 74.312 183.437 72.5624C181.687 70.8129 178.851 70.8129 177.101 72.5624L135.539 114.125C134.579 115.084 134.099 115.564 133.687 115.597C133.33 115.625 132.981 115.48 132.748 115.207C132.48 114.893 132.48 114.215 132.48 112.858V54.0796C132.48 51.6054 130.474 49.5996 128 49.5996Z" fill="white"/>
</svg>
