<svg width="256" height="256" viewBox="0 0 256 256" fill="none" xmlns="http://www.w3.org/2000/svg">
<path fill-rule="evenodd" clip-rule="evenodd" d="M108 54.1043L97.9115 81.3682C95.0756 89.0324 89.0329 95.0751 81.3687 97.9111L54.1048 108L81.3687 118.088C89.0329 120.924 95.0756 126.967 97.9115 134.631L108 161.895L118.089 134.631C120.925 126.967 126.967 120.924 134.632 118.088L161.895 108L134.632 97.9111C126.967 95.0751 120.925 89.0324 118.089 81.3682L108 54.1043ZM119.254 38.4137C115.388 27.9663 100.612 27.9663 96.7459 38.4137L82.9059 75.8157C81.6905 79.1003 79.1008 81.69 75.8161 82.9054L38.4142 96.7454C27.9668 100.611 27.9668 115.388 38.4142 119.254L75.8161 133.094C79.1008 134.309 81.6905 136.899 82.9059 140.184L96.7459 177.586C100.612 188.033 115.388 188.033 119.254 177.586L133.094 140.184C134.31 136.899 136.899 134.309 140.184 133.094L177.586 119.254C188.033 115.388 188.033 100.611 177.586 96.7454L140.184 82.9054C136.899 81.69 134.31 79.1003 133.094 75.8157L119.254 38.4137Z" fill="black"/>
<path fill-rule="evenodd" clip-rule="evenodd" d="M187.999 162.579L184.324 172.509C182.298 177.983 177.982 182.3 172.508 184.325L162.577 188L172.508 191.675C177.982 193.7 182.298 198.017 184.324 203.491L187.999 213.422L191.673 203.491C193.699 198.017 198.015 193.7 203.49 191.675L213.42 188L203.49 184.325C198.015 182.3 193.699 177.983 191.673 172.509L187.999 162.579ZM195.501 148.276C192.924 141.311 183.073 141.311 180.496 148.276L173.07 168.345C172.259 170.534 170.533 172.261 168.343 173.071L148.275 180.497C141.31 183.074 141.31 192.926 148.275 195.503L168.343 202.929C170.533 203.739 172.259 205.466 173.07 207.655L180.496 227.724C183.073 234.689 192.924 234.689 195.501 227.724L202.927 207.655C203.738 205.466 205.464 203.739 207.654 202.929L227.723 195.503C234.687 192.926 234.687 183.074 227.723 180.497L207.654 173.071C205.464 172.261 203.738 170.534 202.927 168.345L195.501 148.276Z" fill="black"/>
</svg>
