<svg width="256" height="256" viewBox="0 0 256 256" fill="none" xmlns="http://www.w3.org/2000/svg">
<path d="M123.702 35.2212C124.958 30.9263 131.042 30.9263 132.298 35.2212L141.309 66.0327C148.169 89.4891 166.511 107.831 189.967 114.691L220.779 123.702C225.074 124.958 225.074 131.042 220.779 132.298L189.967 141.309C166.511 148.169 148.169 166.511 141.309 189.967L132.298 220.779C131.042 225.074 124.958 225.074 123.702 220.779L114.691 189.967C107.831 166.511 89.489 148.169 66.0327 141.309L35.2212 132.298C30.9263 131.042 30.9263 124.958 35.2212 123.702L66.0327 114.691C89.4891 107.831 107.831 89.4891 114.691 66.0327L123.702 35.2212Z" fill="black"/>
</svg>
