<svg width="256" height="256" viewBox="0 0 256 256" fill="none" xmlns="http://www.w3.org/2000/svg">
<path fill-rule="evenodd" clip-rule="evenodd" d="M119.254 38.4137C115.388 27.9663 100.612 27.9663 96.7459 38.4137L82.9059 75.8157C81.6905 79.1003 79.1008 81.69 75.8161 82.9054L38.4142 96.7454C27.9668 100.611 27.9668 115.388 38.4142 119.254L75.8161 133.094C79.1008 134.309 81.6905 136.899 82.9059 140.184L96.7459 177.586C100.612 188.033 115.388 188.033 119.254 177.586L133.094 140.184C134.31 136.899 136.899 134.309 140.184 133.094L177.586 119.254C188.033 115.388 188.033 100.611 177.586 96.7454L140.184 82.9054C136.899 81.69 134.31 79.1003 133.094 75.8157L119.254 38.4137Z" fill="black"/>
<path fill-rule="evenodd" clip-rule="evenodd" d="M195.501 148.276C192.924 141.311 183.073 141.311 180.496 148.276L173.07 168.345C172.259 170.534 170.533 172.261 168.343 173.071L148.275 180.497C141.31 183.074 141.31 192.926 148.275 195.503L168.343 202.929C170.533 203.739 172.259 205.466 173.07 207.655L180.496 227.724C183.073 234.689 192.924 234.689 195.501 227.724L202.927 207.655C203.738 205.466 205.464 203.739 207.654 202.929L227.723 195.503C234.687 192.926 234.687 183.074 227.723 180.497L207.654 173.071C205.464 172.261 203.738 170.534 202.927 168.345L195.501 148.276Z" fill="black"/>
</svg>
