<svg width="256" height="256" viewBox="0 0 256 256" fill="none" xmlns="http://www.w3.org/2000/svg">
<path d="M80 48H176C193.673 48 208 62.3269 208 80V89.5954C213.725 92.5217 219.086 96.0565 224 100.115V80C224 53.4903 202.51 32 176 32H80C53.4903 32 32 53.4903 32 80V176C32 202.51 53.4903 224 80 224H100.115C96.0565 219.086 92.5217 213.725 89.5954 208H80C62.3269 208 48 193.673 48 176V80C48 62.3269 62.3269 48 80 48Z" fill="black"/>
<path d="M168 96C153.76 96 139.839 100.223 127.999 108.134C116.159 116.046 106.93 127.291 101.481 140.447C96.0312 153.603 94.6054 168.08 97.3835 182.046C100.162 196.013 107.019 208.842 117.088 218.912C127.158 228.981 139.987 235.838 153.954 238.617C167.92 241.395 182.397 239.969 195.553 234.519C208.709 229.07 219.954 219.841 227.866 208.001C235.777 196.161 240 182.24 240 168C239.963 148.916 232.366 130.623 218.871 117.129C205.377 103.634 187.084 96.0366 168 96ZM194.1 186.208C195.14 187.258 195.723 188.676 195.723 190.154C195.723 191.632 195.14 193.05 194.1 194.1C193.041 195.124 191.626 195.696 190.154 195.696C188.681 195.696 187.266 195.124 186.208 194.1L168 175.823L149.792 194.1C148.734 195.124 147.319 195.696 145.846 195.696C144.374 195.696 142.959 195.124 141.9 194.1C140.86 193.05 140.277 191.632 140.277 190.154C140.277 188.676 140.86 187.258 141.9 186.208L160.177 168L141.9 149.792C141.017 148.716 140.566 147.35 140.634 145.96C140.702 144.569 141.285 143.254 142.269 142.269C143.254 141.285 144.569 140.702 145.96 140.634C147.35 140.565 148.716 141.017 149.792 141.9L168 160.177L186.208 141.9C187.284 141.017 188.65 140.565 190.04 140.634C191.431 140.702 192.746 141.285 193.731 142.269C194.715 143.254 195.298 144.569 195.366 145.96C195.435 147.35 194.983 148.716 194.1 149.792L175.823 168L194.1 186.208Z" fill="black"/>
</svg>
