<svg width="256" height="256" viewBox="0 0 256 256" fill="none" xmlns="http://www.w3.org/2000/svg">
<path opacity="0.2" d="M168 128C168 141.255 157.255 152 144 152C130.745 152 120 141.255 120 128C120 114.745 130.745 104 144 104C157.255 104 168 114.745 168 128Z" fill="black"/>
<path opacity="0.2" d="M248 128C248 141.255 237.255 152 224 152C210.745 152 200 141.255 200 128C200 114.745 210.745 104 224 104C237.255 104 248 114.745 248 128Z" fill="black"/>
<path d="M8 128C8 114.745 18.7452 104 32 104H64C77.2548 104 88 114.745 88 128C88 141.255 77.2548 152 64 152H32C18.7452 152 8 141.255 8 128Z" fill="black"/>
</svg>
