<svg width="256" height="256" viewBox="0 0 256 256" fill="none" xmlns="http://www.w3.org/2000/svg">
<path fill-rule="evenodd" clip-rule="evenodd" d="M48.9297 172.258L120.93 36.2585C122.997 32.3537 127.838 30.864 131.743 32.9313C133.161 33.6818 134.32 34.841 135.07 36.2585L207.07 172.258C207.669 173.389 207.987 174.645 208 175.924L208 176.002C208 178.965 206.362 181.685 203.743 183.072C202.613 183.67 201.356 183.989 200.078 184.001L200 184.002C197.037 184.002 194.316 182.364 192.93 179.745L174.007 144.002H81.9929L63.0703 179.745C61.6878 182.356 58.9784 183.993 56.0236 184.002L56 184.002C54.6952 184.002 53.4101 183.682 52.2569 183.072C50.3817 182.079 48.9777 180.382 48.3538 178.354C48.1233 177.605 48.0042 176.827 48.0001 176.043L48 176.002C48 174.697 48.3192 173.412 48.9297 172.258ZM165.536 128.002L128 57.0997L90.4635 128.002H165.536ZM40 208C35.5817 208 32 211.582 32 216C32 220.418 35.5817 224 40 224H216C220.418 224 224 220.418 224 216C224 211.582 220.418 208 216 208H40Z" fill="black"/>
</svg>
