<svg width="256" height="256" viewBox="0 0 256 256" fill="none" xmlns="http://www.w3.org/2000/svg">
<path d="M64 112C72.8366 112 80 119.163 80 128C80 136.837 72.8366 144 64 144C55.1634 144 48 136.837 48 128C48 119.163 55.1634 112 64 112Z" fill="black"/>
<path d="M128 112C136.837 112 144 119.163 144 128C144 136.837 136.837 144 128 144C119.163 144 112 136.837 112 128C112 119.163 119.163 112 128 112Z" fill="black"/>
<path d="M208 128C208 119.163 200.837 112 192 112C183.163 112 176 119.163 176 128C176 136.837 183.163 144 192 144C200.837 144 208 136.837 208 128Z" fill="black"/>
</svg>
