<svg width="256" height="256" viewBox="0 0 256 256" fill="none" xmlns="http://www.w3.org/2000/svg">
<path fill-rule="evenodd" clip-rule="evenodd" d="M32 22.3492V233.651C32 245.994 41.8497 256 54 256H202C214.15 256 224 245.994 224 233.651V58.8101C224 52.8402 221.649 47.1183 217.471 42.9202L181.183 6.4593C177.064 2.32104 171.505 0 165.712 0H54C41.8497 0 32 10.0061 32 22.3492ZM46 233.651V22.3492C46 17.8608 49.5817 14.2222 54 14.2222H163V62.9841C163 71.3999 169.716 78.2222 178 78.2222H210V233.651C210 238.139 206.418 241.778 202 241.778H54C49.5817 241.778 46 238.139 46 233.651ZM210 64V58.8101C210 56.6392 209.145 54.5586 207.626 53.032L177 22.2604V62.9841C177 63.5452 177.448 64 178 64H210Z" fill="#9D9C9B"/>
<path fill-rule="evenodd" clip-rule="evenodd" d="M64 104C64 98 66 96 72 96H184C190 96 192 98 192 104C192 110 190 112 184 112H72C66 112 64 110 64 104Z" fill="#C9C7C5"/>
<path fill-rule="evenodd" clip-rule="evenodd" d="M64 136C64 130 66 128 72 128H184C190 128 192 130 192 136C192 142 190 144 184 144H72C66 144 64 142 64 136Z" fill="#C9C7C5"/>
<path fill-rule="evenodd" clip-rule="evenodd" d="M64 168C64 162 66 160 72 160H184C190 160 192 162 192 168C192 174 190 176 184 176H72C66 176 64 174 64 168Z" fill="#C9C7C5"/>
<path fill-rule="evenodd" clip-rule="evenodd" d="M64 200C64 194 66 192 72 192H184C190 192 192 194 192 200C192 206 190 208 184 208H72C66 208 64 206 64 200Z" fill="#C9C7C5"/>
</svg>
