<svg width="256" height="256" viewBox="0 0 256 256" fill="none" xmlns="http://www.w3.org/2000/svg">
<path d="M171.453 214.245L232.005 179.286C236.955 176.428 240.005 171.146 240.005 165.429V90.8918C240.005 85.1755 236.955 79.8935 232.005 77.0354L171.453 42.0759C166.12 38.9967 159.453 42.8457 159.453 49.0041C159.453 51.8623 160.978 54.5033 163.453 55.9323L216.005 86.273C220.955 89.1311 224.005 94.4131 224.005 100.129V156.192C224.005 161.908 220.955 167.19 216.005 170.048L163.453 200.389C160.978 201.818 159.453 204.459 159.453 207.317C159.453 213.476 166.12 217.325 171.453 214.245Z" fill="black"/>
<path d="M92 152C103.046 152 112 143.046 112 132C112 120.954 103.046 112 92 112C80.9543 112 72 120.954 72 132C72 143.046 80.9543 152 92 152Z" fill="black"/>
<path fill-rule="evenodd" clip-rule="evenodd" d="M100.001 44.6182C95.0501 41.7601 88.9509 41.7601 84.0005 44.6182L20.3262 81.3806C15.3758 84.2387 12.3262 89.5208 12.3262 95.237V168.762C12.3262 174.478 15.3758 179.76 20.3262 182.618L84.0005 219.381C88.9509 222.239 95.0501 222.239 100.001 219.381L163.675 182.618C168.625 179.76 171.675 174.478 171.675 168.762V95.237C171.675 89.5208 168.625 84.2387 163.675 81.3806L100.001 44.6182ZM155.675 95.237L92.0005 58.4746L28.3262 95.237V168.762L92.0005 205.524L155.675 168.762V95.237Z" fill="black"/>
</svg>
