<svg width="256" height="256" viewBox="0 0 256 256" fill="none" xmlns="http://www.w3.org/2000/svg">
<path d="M96 56C91.5817 56 88 59.5817 88 64C88 68.4183 91.5817 72 96 72H160C173.255 72 184 82.7452 184 96V156C184 160.418 187.582 164 192 164C196.418 164 200 160.418 200 156V96C200 73.9086 182.091 56 160 56H96Z" fill="black"/>
<path fill-rule="evenodd" clip-rule="evenodd" d="M56 104C56 95.1634 63.1634 88 72 88H152C160.837 88 168 95.1634 168 104V184C168 192.837 160.837 200 152 200H72C63.1634 200 56 192.837 56 184V104ZM72 104H152V184H72L72 104Z" fill="black"/>
</svg>
