<svg width="256" height="256" viewBox="0 0 256 256" fill="none" xmlns="http://www.w3.org/2000/svg">
<path d="M162.83 98.83L133.66 128L162.83 157.17C163.581 157.921 164.002 158.939 164.002 160C164.002 161.061 163.581 162.079 162.83 162.83C162.079 163.581 161.061 164.002 160 164.002C158.939 164.002 157.921 163.581 157.17 162.83L128 133.66L98.83 162.83C98.0794 163.581 97.0614 164.002 96 164.002C94.9385 164.002 93.9205 163.581 93.17 162.83C92.4194 162.079 91.9978 161.061 91.9978 160C91.9978 158.939 92.4194 157.921 93.17 157.17L122.34 128L93.17 98.83C92.4194 98.0794 91.9978 97.0615 91.9978 96C91.9978 94.9385 92.4194 93.9206 93.17 93.17C93.9205 92.4194 94.9385 91.9978 96 91.9978C97.0614 91.9978 98.0794 92.4194 98.83 93.17L128 122.34L157.17 93.17C157.542 92.7984 157.983 92.5036 158.468 92.3024C158.954 92.1013 159.474 91.9978 160 91.9978C160.526 91.9978 161.046 92.1013 161.532 92.3024C162.017 92.5036 162.458 92.7984 162.83 93.17C163.202 93.5416 163.496 93.9828 163.698 94.4684C163.899 94.954 164.002 95.4744 164.002 96C164.002 96.5256 163.899 97.046 163.698 97.5316C163.496 98.0172 163.202 98.4584 162.83 98.83ZM228 128C228 147.778 222.135 167.112 211.147 183.557C200.159 200.002 184.541 212.819 166.268 220.388C147.996 227.957 127.889 229.937 108.491 226.079C89.0929 222.22 71.2746 212.696 57.2893 198.711C43.3041 184.725 33.78 166.907 29.9215 147.509C26.0629 128.111 28.0433 108.004 35.612 89.7317C43.1808 71.459 55.998 55.8412 72.443 44.853C88.8879 33.8649 108.222 28 128 28C154.513 28.0291 179.931 38.5742 198.679 57.3215C217.426 76.0688 227.971 101.487 228 128ZM220 128C220 109.804 214.604 92.0169 204.495 76.8875C194.386 61.7582 180.018 49.9663 163.207 43.0031C146.396 36.0398 127.898 34.2179 110.052 37.7678C92.2054 41.3176 75.8126 50.0797 62.9462 62.9462C50.0797 75.8126 41.3176 92.2054 37.7677 110.052C34.2179 127.898 36.0398 146.396 43.0031 163.207C49.9663 180.018 61.7582 194.386 76.8875 204.495C92.0168 214.604 109.804 220 128 220C152.392 219.974 175.777 210.272 193.025 193.025C210.272 175.777 219.974 152.392 220 128Z" fill="black"/>
</svg>
