<svg width="256" height="256" viewBox="0 0 256 256" fill="none" xmlns="http://www.w3.org/2000/svg">
<path fill-rule="evenodd" clip-rule="evenodd" d="M64 22.3492V233.651C64 245.994 73.8497 256 86 256H234C246.15 256 256 245.994 256 233.651V58.8101C256 52.8402 253.649 47.1183 249.471 42.9202L213.183 6.4593C209.064 2.32104 203.505 0 197.712 0H86C73.8497 0 64 10.0061 64 22.3492ZM78 233.651V22.3492C78 17.8608 81.5817 14.2222 86 14.2222H195V62.9841C195 71.3999 201.716 78.2222 210 78.2222H242V233.651C242 238.139 238.418 241.778 234 241.778H86C81.5817 241.778 78 238.139 78 233.651ZM242 64V58.8101C242 56.6392 241.145 54.5586 239.626 53.032L209 22.2604V62.9841C209 63.5452 209.448 64 210 64H242Z" fill="#9D9C9B"/>
<path fill-rule="evenodd" clip-rule="evenodd" d="M164 105C164 101.134 167.134 98 171 98H217C220.866 98 224 101.134 224 105C224 108.866 220.866 112 217 112H171C167.134 112 164 108.866 164 105Z" fill="#69C997"/>
<path fill-rule="evenodd" clip-rule="evenodd" d="M164 137C164 133.134 167.134 130 171 130H217C220.866 130 224 133.134 224 137C224 140.866 220.866 144 217 144H171C167.134 144 164 140.866 164 137Z" fill="#54AD7D"/>
<path fill-rule="evenodd" clip-rule="evenodd" d="M164 169C164 165.134 167.134 162 171 162H217C220.866 162 224 165.134 224 169C224 172.866 220.866 176 217 176H171C167.134 176 164 172.866 164 169Z" fill="#2B593D"/>
<path d="M0 74C0 67.3726 5.37258 62 12 62H132C138.627 62 144 67.3726 144 74V194C144 200.627 138.627 206 132 206H12C5.37258 206 0 200.627 0 194V74Z" fill="#3D8A58"/>
<path d="M40 174.172L62.4766 132.336L42.0781 94H57.6094L70.7891 119.758L83.6953 94H99.0625L78.6641 132.938L101.141 174.172H85.1172L70.5156 146.445L55.9141 174.172H40Z" fill="white"/>
</svg>
