<svg xmlns="http://www.w3.org/2000/svg" width="256" height="256" fill="none" viewBox="0 0 256 256"><path fill="currentColor" fill-rule="evenodd" d="M108 76v26.4a5.6 5.6 0 0 1-5.6 5.6H76c-17.673 0-32-14.327-32-32s14.327-32 32-32 32 14.327 32 32m-76 0c0-24.3 19.7-44 44-44s44 19.7 44 44v26.4c0 9.72-7.88 17.6-17.6 17.6H76c-24.3 0-44-19.699-44-44m44 72h26.4a5.6 5.6 0 0 1 5.6 5.6V180c0 17.673-14.327 32-32 32s-32-14.327-32-32 14.327-32 32-32m-44 32c0-24.301 19.7-44 44-44h26.4c9.72 0 17.6 7.88 17.6 17.6V180c0 24.301-19.699 44-44 44s-44-19.699-44-44m121.6-72H180c17.673 0 32-14.327 32-32s-14.327-32-32-32-32 14.327-32 32v26.4a5.6 5.6 0 0 0 5.6 5.6M180 32c-24.301 0-44 19.7-44 44v26.4c0 9.72 7.88 17.6 17.6 17.6H180c24.301 0 44-19.699 44-44s-19.699-44-44-44m-26.4 116H180c17.673 0 32 14.327 32 32s-14.327 32-32 32-32-14.327-32-32v-26.4a5.6 5.6 0 0 1 5.6-5.6m-17.6 5.6c0-9.72 7.88-17.6 17.6-17.6H180c24.301 0 44 19.699 44 44s-19.699 44-44 44-44-19.699-44-44z" clip-rule="evenodd"/></svg>