<svg xmlns="http://www.w3.org/2000/svg" width="256" height="256" fill="none" viewBox="0 0 256 256"><path fill="currentColor" fill-rule="evenodd" d="M154 40a6 6 0 0 1 6-6h32c16.569 0 30 13.432 30 30v32a6 6 0 1 1-12 0V64c0-9.941-8.059-18-18-18h-32a6 6 0 0 1-6-6m-14.686 50.343 26.911 26.912c6.249 6.248 6.249 16.379 0 22.627l-26.911 26.912c-6.249 6.248-16.379 6.248-22.628 0l-26.911-26.912c-6.249-6.248-6.249-16.379 0-22.627l26.911-26.912c6.249-6.248 16.379-6.248 22.628 0m-8.486 8.485a4 4 0 0 0-5.656 0L98.26 125.74a4 4 0 0 0 0 5.657l26.912 26.912a4 4 0 0 0 5.656 0l26.912-26.912a4 4 0 0 0 0-5.657zM96 222a6 6 0 1 0 0-12H64c-9.941 0-18-8.059-18-18v-32a6 6 0 1 0-12 0v32c0 16.569 13.432 30 30 30zM40 102a6 6 0 0 1-6-6V64c0-16.568 13.432-30 30-30h32a6 6 0 0 1 0 12H64c-9.941 0-18 8.059-18 18v32a6 6 0 0 1-6 6m182 58a6 6 0 1 0-12 0v32c0 9.941-8.059 18-18 18h-32a6 6 0 1 0 0 12h32c16.569 0 30-13.431 30-30z" clip-rule="evenodd"/></svg>