<svg xmlns="http://www.w3.org/2000/svg" width="256" height="256" fill="none" viewBox="0 0 256 256"><path fill="currentColor" d="M164.24 100.24 136.48 128l27.76 27.76a6 6 0 0 1 1.909 4.284 6.002 6.002 0 0 1-10.389 4.196L128 136.48l-27.76 27.76a6 6 0 0 1-8.48-8.48L119.52 128l-27.76-27.76a6 6 0 0 1 8.48-8.48L128 119.52l27.76-27.76a6 6 0 0 1 8.48 8.48M230 128a101.998 101.998 0 0 1-121.899 100.04 102.001 102.001 0 0 1-36.77-184.85A102 102 0 0 1 128 26a102.12 102.12 0 0 1 102 102m-12 0a90 90 0 0 0-55.558-83.15A90 90 0 0 0 64.36 64.36 90 90 0 0 0 128 218a90.1 90.1 0 0 0 63.61-26.39A90.1 90.1 0 0 0 218 128"/></svg>