<svg xmlns="http://www.w3.org/2000/svg" width="256" height="256" fill="none" viewBox="0 0 256 256"><path fill="currentColor" fill-rule="evenodd" d="M32 76c0-24.3 19.7-44 44-44s44 19.7 44 44v26.4c0 9.72-7.88 17.6-17.6 17.6H76c-24.3 0-44-19.699-44-44m64 0v20H76c-11.046 0-20-8.954-20-20s8.954-20 20-20 20 8.954 20 20M32 180c0-24.301 19.7-44 44-44h26.4c9.72 0 17.6 7.88 17.6 17.6V180c0 24.301-19.699 44-44 44s-44-19.699-44-44m44-20h20v20c0 11.046-8.954 20-20 20s-20-8.954-20-20 8.954-20 20-20M180 32c-24.301 0-44 19.7-44 44v26.4c0 9.72 7.88 17.6 17.6 17.6H180c24.301 0 44-19.699 44-44s-19.699-44-44-44m-20 64h20c11.046 0 20-8.954 20-20s-8.954-20-20-20-20 8.954-20 20zM136 153.6c0-9.72 7.88-17.6 17.6-17.6H180c24.301 0 44 19.699 44 44s-19.699 44-44 44-44-19.699-44-44zm24 26.4v-20h20c11.046 0 20 8.954 20 20s-8.954 20-20 20-20-8.954-20-20" clip-rule="evenodd"/></svg>