<svg xmlns="http://www.w3.org/2000/svg" width="256" height="256" fill="none" viewBox="0 0 256 256"><path fill="currentColor" fill-rule="evenodd" d="M148 40c0-6.627 5.373-12 12-12h32c19.882 0 36 16.118 36 36v32c0 6.627-5.373 12-12 12s-12-5.373-12-12V64c0-6.627-5.373-12-12-12h-32c-6.627 0-12-5.373-12-12m-.201 41.858 26.912 26.912c10.934 10.934 10.934 28.663 0 39.598l-26.912 26.911c-10.935 10.935-28.663 10.935-39.598 0l-26.912-26.911c-10.934-10.935-10.934-28.664 0-39.598l26.912-26.912c10.935-10.935 28.663-10.935 39.598 0m-16.971 16.97a4 4 0 0 0-5.656 0L98.26 125.74a4 4 0 0 0 0 5.657l26.912 26.912a4 4 0 0 0 5.656 0l26.912-26.912a4 4 0 0 0 0-5.657zM96 228c6.627 0 12-5.373 12-12s-5.373-12-12-12H64c-6.627 0-12-5.373-12-12v-32c0-6.627-5.373-12-12-12s-12 5.373-12 12v32c0 19.882 16.118 36 36 36zM40 108c-6.627 0-12-5.373-12-12V64c0-19.882 16.118-36 36-36h32c6.627 0 12 5.373 12 12s-5.373 12-12 12H64c-6.627 0-12 5.373-12 12v32c0 6.627-5.373 12-12 12m188 52c0-6.627-5.373-12-12-12s-12 5.373-12 12v32c0 6.627-5.373 12-12 12h-32c-6.627 0-12 5.373-12 12s5.373 12 12 12h32c19.882 0 36-16.118 36-36z" clip-rule="evenodd"/></svg>