<svg xmlns="http://www.w3.org/2000/svg" width="256" height="256" fill="none" viewBox="0 0 256 256"><path fill="currentColor" d="M168.49 104.49 145 128l23.52 23.51a12.022 12.022 0 0 1-17 17L128 145l-23.51 23.52a12.022 12.022 0 0 1-17-17L111 128l-23.49-23.51a12.01 12.01 0 0 1-3.52-8.5 12.02 12.02 0 0 1 20.52-8.5L128 111l23.51-23.52a12.02 12.02 0 1 1 17 17zM236 128a108.005 108.005 0 0 1-66.67 99.779 108.01 108.01 0 0 1-117.698-23.411A108 108 0 0 1 28.223 86.67 108 108 0 0 1 128 20a108.123 108.123 0 0 1 108 108m-24 0a84 84 0 1 0-84 84 84.09 84.09 0 0 0 84-84"/></svg>