<svg xmlns="http://www.w3.org/2000/svg" width="256" height="256" fill="none" viewBox="0 0 256 256"><path fill="currentColor" fill-rule="evenodd" d="M76 32c-24.3 0-44 19.7-44 44s19.7 44 44 44h26.4c9.72 0 17.6-7.88 17.6-17.6V76c0-24.3-19.699-44-44-44m0 104c-24.3 0-44 19.699-44 44s19.7 44 44 44 44-19.699 44-44v-26.4c0-9.72-7.88-17.6-17.6-17.6zm60-60c0-24.3 19.699-44 44-44s44 19.7 44 44-19.699 44-44 44h-26.4c-9.72 0-17.6-7.88-17.6-17.6zm17.6 60c-9.72 0-17.6 7.88-17.6 17.6V180c0 24.301 19.699 44 44 44s44-19.699 44-44-19.699-44-44-44z" clip-rule="evenodd"/></svg>