<svg xmlns="http://www.w3.org/2000/svg" width="256" height="256" fill="none" viewBox="0 0 256 256"><path fill="currentColor" d="M133.657 101.657a8 8 0 0 0-11.314 0l-21.255 21.255a8 8 0 0 0 0 11.313l21.255 21.255a8 8 0 0 0 11.314 0l21.255-21.255a8 8 0 0 0 0-11.313z"/><path fill="currentColor" fill-rule="evenodd" d="M32 64c0-17.673 14.327-32 32-32h128c17.673 0 32 14.327 32 32v128c0 17.673-14.327 32-32 32H64c-17.673 0-32-14.327-32-32zm84.686 19.314c6.249-6.249 16.379-6.249 22.628 0l33.941 33.941c6.248 6.248 6.248 16.379 0 22.627l-33.941 33.941c-6.249 6.249-16.379 6.249-22.628 0l-33.94-33.941c-6.25-6.248-6.25-16.379 0-22.627z" clip-rule="evenodd"/></svg>