<svg xmlns="http://www.w3.org/2000/svg" width="256" height="256" fill="none" viewBox="0 0 256 256"><path fill="currentColor" fill-rule="evenodd" d="M119.254 38.414c-3.866-10.448-18.642-10.448-22.508 0l-13.84 37.402a12 12 0 0 1-7.09 7.09l-37.402 13.84c-10.447 3.865-10.447 18.642 0 22.508l37.402 13.84a12 12 0 0 1 7.09 7.09l13.84 37.402c3.866 10.447 18.642 10.447 22.508 0l13.84-37.402a12 12 0 0 1 7.09-7.09l37.402-13.84c10.447-3.866 10.447-18.643 0-22.509l-37.402-13.84a12 12 0 0 1-7.09-7.09zM195.501 148.276c-2.577-6.965-12.428-6.965-15.005 0l-7.426 20.069a8 8 0 0 1-4.727 4.726l-20.068 7.426c-6.965 2.577-6.965 12.429 0 15.006l20.068 7.426a8 8 0 0 1 4.727 4.726l7.426 20.069c2.577 6.965 12.428 6.965 15.005 0l7.426-20.069a8 8 0 0 1 4.727-4.726l20.069-7.426c6.964-2.577 6.964-12.429 0-15.006l-20.069-7.426a8 8 0 0 1-4.727-4.726z" clip-rule="evenodd"/></svg>