<svg xmlns="http://www.w3.org/2000/svg" width="256" height="256" fill="none" viewBox="0 0 256 256"><path fill="currentColor" fill-rule="evenodd" d="M113.067 94.4c-10.31 0-18.667 8.357-18.667 18.667v29.866c0 10.31 8.357 18.667 18.667 18.667h29.866c10.31 0 18.667-8.357 18.667-18.667v-29.866c0-10.31-8.357-18.667-18.667-18.667zM72 113.067C72 90.387 90.386 72 113.067 72h29.866C165.614 72 184 90.386 184 113.067v29.866C184 165.614 165.614 184 142.933 184h-29.866C90.387 184 72 165.614 72 142.933z" clip-rule="evenodd"/></svg>