<svg xmlns="http://www.w3.org/2000/svg" width="256" height="256" fill="none" viewBox="0 0 256 256"><g fill="currentColor" opacity=".04"><path d="M76 32c-24.3 0-44 19.7-44 44s19.7 44 44 44h26.4c9.72 0 17.6-7.88 17.6-17.6V76c0-24.3-19.699-44-44-44M76 136c-24.3 0-44 19.699-44 44s19.7 44 44 44 44-19.699 44-44v-26.4c0-9.72-7.88-17.6-17.6-17.6zM136 76c0-24.3 19.699-44 44-44s44 19.7 44 44-19.699 44-44 44h-26.4c-9.72 0-17.6-7.88-17.6-17.6zM153.6 136c-9.72 0-17.6 7.88-17.6 17.6V180c0 24.301 19.699 44 44 44s44-19.699 44-44-19.699-44-44-44z"/></g><path fill="currentColor" fill-rule="evenodd" d="M32 76c0-24.3 19.7-44 44-44s44 19.7 44 44v26.4c0 9.72-7.88 17.6-17.6 17.6H76c-24.3 0-44-19.699-44-44m72 0v26.4a1.6 1.6 0 0 1-1.6 1.6H76c-15.464 0-28-12.536-28-28s12.536-28 28-28 28 12.536 28 28M32 180c0-24.301 19.7-44 44-44h26.4c9.72 0 17.6 7.88 17.6 17.6V180c0 24.301-19.699 44-44 44s-44-19.699-44-44m44-28h26.4a1.6 1.6 0 0 1 1.6 1.6V180c0 15.464-12.536 28-28 28s-28-12.536-28-28 12.536-28 28-28M180 32c-24.301 0-44 19.7-44 44v26.4c0 9.72 7.88 17.6 17.6 17.6H180c24.301 0 44-19.699 44-44s-19.699-44-44-44m-26.4 72H180c15.464 0 28-12.536 28-28s-12.536-28-28-28-28 12.536-28 28v26.4a1.6 1.6 0 0 0 1.6 1.6M136 153.6c0-9.72 7.88-17.6 17.6-17.6H180c24.301 0 44 19.699 44 44s-19.699 44-44 44-44-19.699-44-44zm17.6-1.6H180c15.464 0 28 12.536 28 28s-12.536 28-28 28-28-12.536-28-28v-26.4a1.6 1.6 0 0 1 1.6-1.6" clip-rule="evenodd"/></svg>