<svg xmlns="http://www.w3.org/2000/svg" width="256" height="256" fill="none" viewBox="0 0 256 256"><path fill="currentColor" fill-rule="evenodd" d="M212.186 43.213a8 8 0 0 1 8 8v39.233a8 8 0 0 1-16 0v-19.92l-51.537 51.537a8 8 0 0 1-11.314 0 8 8 0 0 1 0-11.313l51.538-51.537h-19.921a8 8 0 0 1 0-16z" clip-rule="evenodd"/><path fill="currentColor" fill-rule="evenodd" d="m39.03 111.84 77.497-77.497a8 8 0 0 1 11.313 0 8 8 0 0 1 0 11.314l-77.497 77.497a8 8 0 0 0 0 11.314l75.214 75.214a8 8 0 0 0 11.314 0l77.498-77.497a8 8 0 1 1 11.313 11.314l-77.497 77.497c-9.373 9.373-24.569 9.373-33.941 0l-75.215-75.214c-9.372-9.373-9.372-24.569 0-33.942" clip-rule="evenodd"/></svg>