<svg xmlns="http://www.w3.org/2000/svg" width="256" height="256" fill="none" viewBox="0 0 256 256"><path fill="currentColor" fill-rule="evenodd" d="M152 40a8 8 0 0 1 8-8h32c17.673 0 32 14.327 32 32v32a8 8 0 0 1-16 0V64c0-8.837-7.163-16-16-16h-32a8 8 0 0 1-8-8m-48 176a8 8 0 0 1-8 8H64c-17.673 0-32-14.327-32-32v-32a8 8 0 0 1 16 0v32c0 8.837 7.163 16 16 16h32a8 8 0 0 1 8 8M32 96a8 8 0 0 0 16 0V64c0-8.837 7.163-16 16-16h32a8 8 0 0 0 0-16H64c-17.673 0-32 14.327-32 32zm184 56a8 8 0 0 1 8 8v32c0 17.673-14.327 32-32 32h-32a8 8 0 0 1 0-16h32c8.837 0 16-7.163 16-16v-32a8 8 0 0 1 8-8m-85.172-53.172a4 4 0 0 0-5.656 0L98.26 125.74a4 4 0 0 0 0 5.657l26.912 26.912a4 4 0 0 0 5.656 0l26.912-26.912a4 4 0 0 0 0-5.657z" clip-rule="evenodd" opacity=".08"/><path fill="currentColor" fill-rule="evenodd" d="m142.142 87.515 26.911 26.912c7.811 7.81 7.811 20.474 0 28.284l-26.911 26.912c-7.811 7.81-20.474 7.81-28.285 0l-26.911-26.912c-7.81-7.81-7.81-20.474 0-28.284l26.911-26.912c7.811-7.81 20.474-7.81 28.285 0M130.828 98.83a4 4 0 0 0-5.657 0L98.259 125.74a4 4 0 0 0 0 5.657l26.912 26.912a4 4 0 0 0 5.657 0l26.912-26.912a4 4 0 0 0 0-5.657z" clip-rule="evenodd"/></svg>