<svg xmlns="http://www.w3.org/2000/svg" width="256" height="256" fill="none" viewBox="0 0 256 256"><path fill="currentColor" d="M176 208a8 8 0 0 1-8-8V56a8 8 0 0 1 8-8h48v160z" opacity=".2"/><path fill="currentColor" d="M160 48v160a8 8 0 0 0 16 0V48a8 8 0 0 0-16 0"/><path fill="currentColor" fill-rule="evenodd" d="M24 56s0-6.627 4.686-11.314c0 0 4.687-4.686 11.314-4.686h176s6.627 0 11.314 4.686c0 0 4.686 4.687 4.686 11.314v144s0 6.627-4.686 11.314c0 0-4.687 4.686-11.314 4.686H40s-6.627 0-11.314-4.686c0 0-4.686-4.687-4.686-11.314zm16 0v144h176V56z" clip-rule="evenodd"/><path fill="currentColor" d="M200 88h24a8 8 0 0 0 0-16h-24a8 8 0 0 0 0 16M200 120h24a8 8 0 0 0 0-16h-24a8 8 0 0 0 0 16M200 152h24a8 8 0 0 0 0-16h-24a8 8 0 0 0 0 16"/></svg>