<svg xmlns="http://www.w3.org/2000/svg" width="256" height="256" fill="none" viewBox="0 0 256 256"><path fill="currentColor" d="M123.702 35.221c1.256-4.295 7.34-4.295 8.596 0l9.011 30.812a71.65 71.65 0 0 0 48.658 48.658l30.812 9.011c4.295 1.256 4.295 7.34 0 8.596l-30.812 9.011a71.65 71.65 0 0 0-48.658 48.658l-9.011 30.812c-1.256 4.295-7.34 4.295-8.596 0l-9.011-30.812a71.65 71.65 0 0 0-48.658-48.658l-30.812-9.011c-4.295-1.256-4.295-7.34 0-8.596l30.812-9.011a71.65 71.65 0 0 0 48.658-48.658z"/></svg>