<svg xmlns="http://www.w3.org/2000/svg" width="256" height="256" fill="none" viewBox="0 0 256 256"><path fill="currentColor" d="M80 48h96c17.673 0 32 14.327 32 32v9.595a88 88 0 0 1 16 10.52V80c0-26.51-21.49-48-48-48H80c-26.51 0-48 21.49-48 48v96c0 26.51 21.49 48 48 48h20.115a88 88 0 0 1-10.52-16H80c-17.673 0-32-14.327-32-32V80c0-17.673 14.327-32 32-32"/><path fill="currentColor" d="M168 96a72 72 0 0 0-66.519 44.447 72 72 0 0 0 15.607 78.465 71.995 71.995 0 0 0 78.465 15.607A72 72 0 0 0 240 168a72.14 72.14 0 0 0-72-72m26.1 90.208a5.607 5.607 0 0 1 0 7.892 5.677 5.677 0 0 1-7.892 0L168 175.823 149.792 194.1a5.673 5.673 0 0 1-7.892 0 5.607 5.607 0 0 1 0-7.892L160.177 168 141.9 149.792a5.609 5.609 0 0 1 7.892-7.892L168 160.177l18.208-18.277a5.61 5.61 0 0 1 9.158 4.06 5.6 5.6 0 0 1-1.266 3.832L175.823 168z"/></svg>