<svg xmlns="http://www.w3.org/2000/svg" width="256" height="256" fill="none" viewBox="0 0 256 256"><path fill="currentColor" d="M165.66 101.66 139.31 128l26.35 26.34a8.004 8.004 0 0 1-11.32 11.32L128 139.31l-26.34 26.35a8.005 8.005 0 0 1-11.32-11.32L116.69 128l-26.35-26.34a8.004 8.004 0 1 1 11.32-11.32L128 116.69l26.34-26.35a8 8 0 0 1 11.32 0 8.005 8.005 0 0 1 0 11.32M232 128a104.003 104.003 0 0 1-124.289 102.002A104 104 0 0 1 31.917 88.201 104 104 0 0 1 128 24a104.11 104.11 0 0 1 104 104m-16 0a88 88 0 0 0-54.324-81.301A88 88 0 1 0 128 216a88.1 88.1 0 0 0 62.196-25.804A88.1 88.1 0 0 0 216 128"/></svg>